<svg xmlns="http://www.w3.org/2000/svg" xmlns:xlink="http://www.w3.org/1999/xlink" width="600" height="400" viewBox="0 0 2400 1600">
<defs>
  <clipPath id="clip710">
    <rect x="0" y="0" width="2400" height="1600"></rect>
  </clipPath>
</defs>
<path clip-path="url(#clip710)" d="M0 1600 L2400 1600 L2400 0 L0 0  Z" fill="#ffffff" fill-rule="evenodd" fill-opacity="1"></path>
<defs>
  <clipPath id="clip711">
    <rect x="480" y="0" width="1681" height="1600"></rect>
  </clipPath>
</defs>
<path clip-path="url(#clip710)" d="M252.764 642.531 L1184.85 642.531 L1184.85 47.2441 L252.764 47.2441  Z" fill="#ffffff" fill-rule="evenodd" fill-opacity="1"></path>
<defs>
  <clipPath id="clip712">
    <rect x="252" y="47" width="933" height="596"></rect>
  </clipPath>
</defs>
<polyline clip-path="url(#clip712)" style="stroke:#000000; stroke-linecap:round; stroke-linejoin:round; stroke-width:2; stroke-opacity:0.1; fill:none" points="279.144,642.531 279.144,47.2441 "></polyline>
<polyline clip-path="url(#clip712)" style="stroke:#000000; stroke-linecap:round; stroke-linejoin:round; stroke-width:2; stroke-opacity:0.1; fill:none" points="620.452,642.531 620.452,47.2441 "></polyline>
<polyline clip-path="url(#clip712)" style="stroke:#000000; stroke-linecap:round; stroke-linejoin:round; stroke-width:2; stroke-opacity:0.1; fill:none" points="961.761,642.531 961.761,47.2441 "></polyline>
<polyline clip-path="url(#clip710)" style="stroke:#000000; stroke-linecap:round; stroke-linejoin:round; stroke-width:4; stroke-opacity:1; fill:none" points="252.764,642.531 1184.85,642.531 "></polyline>
<polyline clip-path="url(#clip710)" style="stroke:#000000; stroke-linecap:round; stroke-linejoin:round; stroke-width:4; stroke-opacity:1; fill:none" points="279.144,642.531 279.144,623.633 "></polyline>
<polyline clip-path="url(#clip710)" style="stroke:#000000; stroke-linecap:round; stroke-linejoin:round; stroke-width:4; stroke-opacity:1; fill:none" points="620.452,642.531 620.452,623.633 "></polyline>
<polyline clip-path="url(#clip710)" style="stroke:#000000; stroke-linecap:round; stroke-linejoin:round; stroke-width:4; stroke-opacity:1; fill:none" points="961.761,642.531 961.761,623.633 "></polyline>
<path clip-path="url(#clip710)" d="M244.127 716.655 L251.765 716.655 L251.765 690.29 L243.455 691.957 L243.455 687.697 L251.719 686.031 L256.395 686.031 L256.395 716.655 L264.034 716.655 L264.034 720.591 L244.127 720.591 L244.127 716.655 Z" fill="#000000" fill-rule="nonzero" fill-opacity="1"></path><path clip-path="url(#clip710)" d="M283.478 689.109 Q279.867 689.109 278.038 692.674 Q276.233 696.216 276.233 703.345 Q276.233 710.452 278.038 714.017 Q279.867 717.558 283.478 717.558 Q287.112 717.558 288.918 714.017 Q290.747 710.452 290.747 703.345 Q290.747 696.216 288.918 692.674 Q287.112 689.109 283.478 689.109 M283.478 685.406 Q289.288 685.406 292.344 690.012 Q295.423 694.595 295.423 703.345 Q295.423 712.072 292.344 716.679 Q289.288 721.262 283.478 721.262 Q277.668 721.262 274.589 716.679 Q271.534 712.072 271.534 703.345 Q271.534 694.595 274.589 690.012 Q277.668 685.406 283.478 685.406 Z" fill="#000000" fill-rule="nonzero" fill-opacity="1"></path><path clip-path="url(#clip710)" d="M305.127 667.602 Q302.193 667.602 300.708 670.498 Q299.241 673.376 299.241 679.168 Q299.241 684.942 300.708 687.839 Q302.193 690.716 305.127 690.716 Q308.08 690.716 309.547 687.839 Q311.033 684.942 311.033 679.168 Q311.033 673.376 309.547 670.498 Q308.08 667.602 305.127 667.602 M305.127 664.592 Q309.848 664.592 312.331 668.335 Q314.832 672.059 314.832 679.168 Q314.832 686.259 312.331 690.002 Q309.848 693.726 305.127 693.726 Q300.407 693.726 297.905 690.002 Q295.423 686.259 295.423 679.168 Q295.423 672.059 297.905 668.335 Q300.407 664.592 305.127 664.592 Z" fill="#000000" fill-rule="nonzero" fill-opacity="1"></path><path clip-path="url(#clip710)" d="M586.78 716.655 L594.419 716.655 L594.419 690.29 L586.109 691.957 L586.109 687.697 L594.372 686.031 L599.048 686.031 L599.048 716.655 L606.687 716.655 L606.687 720.591 L586.78 720.591 L586.78 716.655 Z" fill="#000000" fill-rule="nonzero" fill-opacity="1"></path><path clip-path="url(#clip710)" d="M626.131 689.109 Q622.52 689.109 620.692 692.674 Q618.886 696.216 618.886 703.345 Q618.886 710.452 620.692 714.017 Q622.52 717.558 626.131 717.558 Q629.766 717.558 631.571 714.017 Q633.4 710.452 633.4 703.345 Q633.4 696.216 631.571 692.674 Q629.766 689.109 626.131 689.109 M626.131 685.406 Q631.942 685.406 634.997 690.012 Q638.076 694.595 638.076 703.345 Q638.076 712.072 634.997 716.679 Q631.942 721.262 626.131 721.262 Q620.321 721.262 617.243 716.679 Q614.187 712.072 614.187 703.345 Q614.187 694.595 617.243 690.012 Q620.321 685.406 626.131 685.406 Z" fill="#000000" fill-rule="nonzero" fill-opacity="1"></path><path clip-path="url(#clip710)" d="M638.621 689.983 L644.828 689.983 L644.828 668.561 L638.076 669.915 L638.076 666.454 L644.79 665.1 L648.589 665.1 L648.589 689.983 L654.796 689.983 L654.796 693.18 L638.621 693.18 L638.621 689.983 Z" fill="#000000" fill-rule="nonzero" fill-opacity="1"></path><path clip-path="url(#clip710)" d="M927.533 716.655 L935.172 716.655 L935.172 690.29 L926.862 691.957 L926.862 687.697 L935.126 686.031 L939.802 686.031 L939.802 716.655 L947.441 716.655 L947.441 720.591 L927.533 720.591 L927.533 716.655 Z" fill="#000000" fill-rule="nonzero" fill-opacity="1"></path><path clip-path="url(#clip710)" d="M966.885 689.109 Q963.274 689.109 961.445 692.674 Q959.64 696.216 959.64 703.345 Q959.64 710.452 961.445 714.017 Q963.274 717.558 966.885 717.558 Q970.519 717.558 972.325 714.017 Q974.154 710.452 974.154 703.345 Q974.154 696.216 972.325 692.674 Q970.519 689.109 966.885 689.109 M966.885 685.406 Q972.695 685.406 975.751 690.012 Q978.829 694.595 978.829 703.345 Q978.829 712.072 975.751 716.679 Q972.695 721.262 966.885 721.262 Q961.075 721.262 957.996 716.679 Q954.941 712.072 954.941 703.345 Q954.941 694.595 957.996 690.012 Q961.075 685.406 966.885 685.406 Z" fill="#000000" fill-rule="nonzero" fill-opacity="1"></path><path clip-path="url(#clip710)" d="M983.4 689.983 L996.659 689.983 L996.659 693.18 L978.829 693.18 L978.829 689.983 Q980.992 687.745 984.716 683.983 Q988.459 680.203 989.418 679.112 Q991.243 677.062 991.957 675.651 Q992.691 674.222 992.691 672.849 Q992.691 670.611 991.111 669.2 Q989.55 667.79 987.03 667.79 Q985.243 667.79 983.249 668.41 Q981.274 669.031 979.018 670.291 L979.018 666.454 Q981.312 665.533 983.306 665.063 Q985.299 664.592 986.954 664.592 Q991.318 664.592 993.913 666.774 Q996.509 668.956 996.509 672.605 Q996.509 674.335 995.851 675.896 Q995.211 677.438 993.5 679.545 Q993.029 680.09 990.509 682.704 Q987.989 685.3 983.4 689.983 Z" fill="#000000" fill-rule="nonzero" fill-opacity="1"></path><polyline clip-path="url(#clip712)" style="stroke:#000000; stroke-linecap:round; stroke-linejoin:round; stroke-width:2; stroke-opacity:0.1; fill:none" points="252.764,509.257 1184.85,509.257 "></polyline>
<polyline clip-path="url(#clip712)" style="stroke:#000000; stroke-linecap:round; stroke-linejoin:round; stroke-width:2; stroke-opacity:0.1; fill:none" points="252.764,276.406 1184.85,276.406 "></polyline>
<polyline clip-path="url(#clip710)" style="stroke:#000000; stroke-linecap:round; stroke-linejoin:round; stroke-width:4; stroke-opacity:1; fill:none" points="252.764,642.531 252.764,47.2441 "></polyline>
<polyline clip-path="url(#clip710)" style="stroke:#000000; stroke-linecap:round; stroke-linejoin:round; stroke-width:4; stroke-opacity:1; fill:none" points="252.764,509.257 271.662,509.257 "></polyline>
<polyline clip-path="url(#clip710)" style="stroke:#000000; stroke-linecap:round; stroke-linejoin:round; stroke-width:4; stroke-opacity:1; fill:none" points="252.764,276.406 271.662,276.406 "></polyline>
<path clip-path="url(#clip710)" d="M114.931 529.049 L122.57 529.049 L122.57 502.683 L114.26 504.35 L114.26 500.091 L122.524 498.424 L127.2 498.424 L127.2 529.049 L134.839 529.049 L134.839 532.984 L114.931 532.984 L114.931 529.049 Z" fill="#000000" fill-rule="nonzero" fill-opacity="1"></path><path clip-path="url(#clip710)" d="M154.283 501.503 Q150.672 501.503 148.843 505.068 Q147.038 508.609 147.038 515.739 Q147.038 522.845 148.843 526.41 Q150.672 529.952 154.283 529.952 Q157.917 529.952 159.723 526.41 Q161.552 522.845 161.552 515.739 Q161.552 508.609 159.723 505.068 Q157.917 501.503 154.283 501.503 M154.283 497.799 Q160.093 497.799 163.149 502.406 Q166.227 506.989 166.227 515.739 Q166.227 524.466 163.149 529.072 Q160.093 533.656 154.283 533.656 Q148.473 533.656 145.394 529.072 Q142.339 524.466 142.339 515.739 Q142.339 506.989 145.394 502.406 Q148.473 497.799 154.283 497.799 Z" fill="#000000" fill-rule="nonzero" fill-opacity="1"></path><path clip-path="url(#clip710)" d="M166.227 491.901 L190.339 491.901 L190.339 495.098 L166.227 495.098 L166.227 491.901 Z" fill="#000000" fill-rule="nonzero" fill-opacity="1"></path><path clip-path="url(#clip710)" d="M208.978 480.804 L199.386 495.794 L208.978 495.794 L208.978 480.804 M207.981 477.494 L212.758 477.494 L212.758 495.794 L216.764 495.794 L216.764 498.953 L212.758 498.953 L212.758 505.574 L208.978 505.574 L208.978 498.953 L196.301 498.953 L196.301 495.286 L207.981 477.494 Z" fill="#000000" fill-rule="nonzero" fill-opacity="1"></path><path clip-path="url(#clip710)" d="M116.624 296.198 L124.263 296.198 L124.263 269.833 L115.953 271.5 L115.953 267.24 L124.217 265.574 L128.893 265.574 L128.893 296.198 L136.531 296.198 L136.531 300.134 L116.624 300.134 L116.624 296.198 Z" fill="#000000" fill-rule="nonzero" fill-opacity="1"></path><path clip-path="url(#clip710)" d="M155.976 268.652 Q152.365 268.652 150.536 272.217 Q148.73 275.759 148.73 282.888 Q148.73 289.995 150.536 293.56 Q152.365 297.101 155.976 297.101 Q159.61 297.101 161.416 293.56 Q163.244 289.995 163.244 282.888 Q163.244 275.759 161.416 272.217 Q159.61 268.652 155.976 268.652 M155.976 264.949 Q161.786 264.949 164.841 269.555 Q167.92 274.138 167.92 282.888 Q167.92 291.615 164.841 296.222 Q161.786 300.805 155.976 300.805 Q150.166 300.805 147.087 296.222 Q144.031 291.615 144.031 282.888 Q144.031 274.138 147.087 269.555 Q150.166 264.949 155.976 264.949 Z" fill="#000000" fill-rule="nonzero" fill-opacity="1"></path><path clip-path="url(#clip710)" d="M167.92 259.05 L192.032 259.05 L192.032 262.247 L167.92 262.247 L167.92 259.05 Z" fill="#000000" fill-rule="nonzero" fill-opacity="1"></path><path clip-path="url(#clip710)" d="M203.504 269.526 L216.764 269.526 L216.764 272.723 L198.934 272.723 L198.934 269.526 Q201.097 267.288 204.821 263.526 Q208.564 259.746 209.523 258.655 Q211.347 256.605 212.062 255.194 Q212.796 253.765 212.796 252.392 Q212.796 250.154 211.216 248.743 Q209.655 247.333 207.134 247.333 Q205.348 247.333 203.354 247.953 Q201.379 248.574 199.122 249.834 L199.122 245.997 Q201.417 245.076 203.41 244.606 Q205.404 244.135 207.059 244.135 Q211.423 244.135 214.018 246.317 Q216.613 248.499 216.613 252.148 Q216.613 253.878 215.955 255.439 Q215.316 256.981 213.604 259.088 Q213.134 259.633 210.614 262.247 Q208.094 264.843 203.504 269.526 Z" fill="#000000" fill-rule="nonzero" fill-opacity="1"></path><path clip-path="url(#clip710)" d="M30.9797 366.781 Q34.5868 366.781 37.904 369.454 Q41.2212 372.095 43.2501 376.411 Q45.2469 380.694 45.2469 385.299 L45.2469 396.507 L61.7363 400.597 Q61.8329 400.629 62.2516 400.726 Q62.6381 400.823 62.8635 400.823 Q63.6687 400.823 63.8619 399.824 Q64.0551 398.794 64.0551 396.507 Q64.0551 395.026 64.3128 394.8 Q64.4738 394.671 64.7637 394.671 Q65.2145 394.671 65.5366 394.8 Q65.8264 394.929 65.9231 395.187 Q66.0197 395.412 66.0519 395.573 Q66.0841 395.734 66.0841 395.992 Q66.0841 396.668 66.0197 398.117 Q65.9553 399.534 65.9553 400.275 L65.8909 404.494 L66.0841 412.868 Q66.0841 413.866 65.2789 413.866 Q64.667 413.866 64.4094 413.608 Q64.1195 413.351 64.0873 413.061 Q64.0551 412.771 64.0551 412.03 Q64.0551 410.42 63.9585 409.454 Q63.8619 408.488 63.7331 407.876 Q63.572 407.232 63.1212 406.909 Q62.6703 406.555 62.2838 406.394 Q61.8651 406.233 60.9312 406.008 L25.5047 397.183 Q24.4419 396.926 24.2809 396.926 Q23.7334 396.926 23.5402 397.248 Q23.3147 397.538 23.2181 398.375 Q23.0893 399.985 23.0893 401.209 Q23.0893 402.014 23.0571 402.336 Q23.0249 402.626 22.8638 402.884 Q22.6706 403.109 22.2841 403.109 Q21.6722 403.109 21.4146 402.852 Q21.1247 402.562 21.0925 402.24 Q21.0281 401.918 21.0281 401.145 L21.0281 379.76 Q21.0281 373.609 23.9588 370.195 Q26.8896 366.781 30.9797 366.781 M29.4016 372.9 Q23.0893 372.9 23.0893 381.886 L23.0893 388.198 Q23.0893 390.291 23.4757 390.807 Q23.83 391.322 25.6013 391.773 L43.54 396.249 L43.54 386.942 Q43.54 380.694 40.0296 376.797 Q38.4193 375.026 35.0699 373.963 Q31.7204 372.9 29.4016 372.9 Z" fill="#000000" fill-rule="nonzero" fill-opacity="1"></path><path clip-path="url(#clip710)" d="M49.5947 359.543 Q38.4515 359.543 29.466 355.389 Q25.6979 353.617 22.5418 351.138 Q19.3856 348.658 18.0007 347.015 Q16.6159 345.373 16.6159 344.922 Q16.6159 344.278 17.26 344.246 Q17.5821 344.246 18.3872 345.115 Q29.2084 355.743 49.5947 355.711 Q70.0454 355.711 80.4479 345.373 Q81.5751 344.246 81.9294 344.246 Q82.5735 344.246 82.5735 344.922 Q82.5735 345.373 81.2531 346.951 Q79.9326 348.529 76.9053 350.977 Q73.8779 353.424 70.1742 355.196 Q61.1888 359.543 49.5947 359.543 Z" fill="#000000" fill-rule="nonzero" fill-opacity="1"></path><path clip-path="url(#clip710)" d="M41.0923 308.321 Q42.9281 308.321 44.0231 309.448 Q45.1181 310.543 45.1181 311.928 Q45.1181 313.152 44.4096 313.796 Q43.701 314.44 42.7993 314.44 Q42.4128 314.44 41.9297 314.279 Q41.4144 314.118 40.8025 313.764 Q40.1906 313.377 39.7397 312.572 Q39.2888 311.767 39.2244 310.672 Q38.999 310.898 38.9668 310.962 Q38.5803 311.445 38.4515 312.347 Q38.3871 312.476 38.3871 312.927 Q38.3871 315.149 40.0296 317.403 Q41.6398 319.625 44.6994 322.363 Q48.2743 325.809 49.5947 328.031 Q50.8829 318.273 56.519 318.273 Q57.4529 318.273 58.5801 318.53 Q60.7057 319.046 62.2516 319.046 Q65.3434 319.046 65.3434 316.952 Q65.3434 314.923 63.2822 313.635 Q61.221 312.315 57.1953 311.22 Q56.4545 311.059 56.2291 310.898 Q56.0037 310.737 56.0037 310.286 Q56.0037 309.48 56.6478 309.48 Q60.4159 310.221 63.3144 311.864 Q66.8248 313.957 66.8248 317.081 Q66.8248 319.69 65.0213 321.429 Q63.1856 323.136 60.287 323.136 Q59.5785 323.136 57.9682 322.878 Q57.3241 322.685 56.5834 322.685 Q55.0697 322.685 53.9425 323.522 Q52.7831 324.36 52.2034 325.712 Q51.6237 327.065 51.366 328.192 Q51.0762 329.287 50.9795 330.35 Q64.6026 333.57 65.44 334.021 Q66.0197 334.311 66.4062 334.955 Q66.8248 335.599 66.8248 336.276 Q66.8248 336.92 66.3739 337.564 Q65.9553 338.176 64.9569 338.176 Q64.4416 338.176 63.5076 337.918 L25.5047 328.353 L24.2165 328.16 Q23.83 328.16 23.6368 328.321 Q23.4113 328.45 23.2503 329.223 Q23.0893 329.963 23.0893 331.445 Q23.0893 332.057 23.0571 332.347 Q23.0249 332.604 22.8638 332.83 Q22.6706 333.055 22.2841 333.055 Q21.7366 333.055 21.4468 332.83 Q21.1247 332.572 21.0603 332.379 Q20.9959 332.186 20.9637 331.799 Q20.9315 331.252 20.7704 329.416 Q20.5772 327.58 20.4484 326.002 Q20.3196 324.424 20.3196 323.748 Q20.3196 323.361 20.5128 323.168 Q20.6738 322.943 20.8671 322.91 L21.0281 322.878 L48.854 329.738 Q47.7268 326.904 42.7348 322.427 Q36.9378 317.242 36.9378 312.798 Q36.9378 310.704 38.226 309.513 Q39.4821 308.321 41.0923 308.321 Z" fill="#000000" fill-rule="nonzero" fill-opacity="1"></path><path clip-path="url(#clip710)" d="M81.9294 301.236 Q81.6073 301.236 80.8022 300.399 Q69.981 289.771 49.5947 289.771 Q29.144 289.771 18.8059 299.98 Q17.6143 301.236 17.26 301.236 Q16.6159 301.236 16.6159 300.592 Q16.6159 300.141 17.9363 298.563 Q19.2568 296.953 22.2841 294.537 Q25.3115 292.09 29.0151 290.286 Q38.0006 285.938 49.5947 285.938 Q60.7379 285.938 69.7234 290.093 Q73.4914 291.864 76.6476 294.344 Q79.8038 296.824 81.1886 298.467 Q82.5735 300.109 82.5735 300.592 Q82.5735 301.236 81.9294 301.236 Z" fill="#000000" fill-rule="nonzero" fill-opacity="1"></path><polyline clip-path="url(#clip712)" style="stroke:#009af9; stroke-linecap:round; stroke-linejoin:round; stroke-width:4; stroke-opacity:1; fill:none" points="279.144,64.0918 381.888,134.273 441.989,180.337 484.632,215.901 517.708,242.744 544.733,265.776 567.583,287.564 587.376,305.364 604.835,320.512 620.452,334.178 634.58,352.966 647.477,364.537 659.342,374.395 670.327,384.894 680.554,401.648 690.12,412.333 699.106,413.842 707.579,429.944 715.593,417.825 723.196,429.944 730.428,434.343 737.324,471.743 743.913,447.38 750.222,460.944 756.273,459.036 762.086,476.804 767.68,479.537 773.071,504.438 778.273,488.756 783.298,488.756 788.158,492.245 792.864,485.493 797.425,504.438 801.85,514.585 806.147,520.54 810.323,514.585 814.384,527.292 818.337,535.086 822.188,570.134 825.94,570.134 829.601,527.292 833.173,570.134 836.66,555.588 840.068,555.588 843.399,535.086 846.657,555.588 849.845,520.54 852.966,590.635 856.022,544.305 859.017,570.134 861.952,570.134 864.83,544.305 867.654,535.086 870.424,570.134 873.144,570.134 878.439,625.683 881.017,590.635 888.492,570.134 890.902,590.635 895.608,590.635 897.906,625.683 900.17,625.683 904.595,590.635 906.759,625.683 908.891,590.635 910.994,590.635 913.067,625.683 921.081,590.635 924.932,625.683 930.526,590.635 932.345,590.635 934.141,625.683 935.917,625.683 937.671,625.683 939.404,625.683 941.118,590.635 944.487,625.683 947.781,625.683 949.401,590.635 957.246,625.683 960.271,625.683 961.761,625.683 963.236,590.635 967.574,590.635 968.993,590.635 971.79,625.683 973.169,625.683 974.535,625.683 975.888,590.635 978.559,625.683 982.477,625.683 987.546,625.683 1042.15,625.683 1045.56,625.683 1048.89,625.683 1049.71,625.683 1052.95,625.683 1125.1,625.683 1127.54,625.683 1158.47,625.683 "></polyline>
<path clip-path="url(#clip710)" d="M942.883 170.767 L1153.78 170.767 L1153.78 67.087 L942.883 67.087  Z" fill="#ffffff" fill-rule="evenodd" fill-opacity="1"></path>
<polyline clip-path="url(#clip710)" style="stroke:#000000; stroke-linecap:round; stroke-linejoin:round; stroke-width:4; stroke-opacity:1; fill:none" points="942.883,170.767 1153.78,170.767 1153.78,67.087 942.883,67.087 942.883,170.767 "></polyline>
<polyline clip-path="url(#clip710)" style="stroke:#009af9; stroke-linecap:round; stroke-linejoin:round; stroke-width:4; stroke-opacity:1; fill:none" points="953.239,118.927 1015.38,118.927 "></polyline>
<path clip-path="url(#clip710)" d="M1052.65 116.118 Q1052.6 116.353 1052.51 116.774 Q1052.41 117.172 1051.99 118.437 Q1051.57 119.702 1051.01 120.99 Q1050.47 122.255 1049.42 124.035 Q1048.38 125.792 1047.12 127.385 Q1046.77 127.806 1046.7 128.064 Q1046.65 128.298 1046.65 129.071 Q1046.65 133.943 1048.13 133.943 Q1048.2 133.943 1048.31 133.943 Q1048.45 133.92 1048.81 133.802 Q1049.18 133.662 1049.51 133.451 Q1049.84 133.217 1050.21 132.748 Q1050.59 132.257 1050.82 131.601 Q1051.03 131.132 1051.45 131.132 Q1052.01 131.132 1052.01 131.601 Q1052.01 132.444 1050.84 133.732 Q1049.67 135.02 1047.99 135.02 Q1046.37 135.02 1045.22 133.966 Q1044.1 132.889 1043.63 130.968 Q1038.57 135.02 1033.51 135.02 Q1029.95 135.02 1027.84 132.702 Q1025.73 130.359 1025.73 126.893 Q1025.73 123.567 1027.56 120.405 Q1029.41 117.243 1032.41 115.275 Q1035.43 113.284 1038.64 113.284 Q1039.76 113.284 1040.84 113.589 Q1041.92 113.87 1043 114.596 Q1044.07 115.322 1044.87 116.423 Q1045.67 117.524 1046.16 119.257 Q1046.65 120.99 1046.65 123.169 L1046.65 126.143 Q1049.74 122.232 1051.36 116.634 Q1051.59 115.791 1051.73 115.697 Q1051.83 115.627 1052.06 115.627 Q1052.3 115.627 1052.44 115.767 Q1052.6 115.884 1052.62 116.001 L1052.65 116.118 M1043.44 129.727 Q1043.35 128.907 1043.35 124.363 Q1043.35 123.497 1043.35 123.028 Q1043.35 122.536 1043.3 121.599 Q1043.25 120.662 1043.16 120.077 Q1043.09 119.491 1042.93 118.648 Q1042.76 117.805 1042.53 117.266 Q1042.29 116.727 1041.92 116.118 Q1041.57 115.509 1041.1 115.158 Q1040.66 114.807 1040 114.573 Q1039.37 114.338 1038.59 114.338 Q1037.63 114.338 1036.63 114.69 Q1035.64 115.018 1034.38 116.072 Q1033.11 117.102 1032.06 118.742 Q1030.96 120.475 1030.11 123.66 Q1029.3 126.823 1029.3 128.72 Q1029.3 131.109 1030.4 132.538 Q1031.5 133.943 1033.6 133.943 Q1038.64 133.943 1043.44 129.727 Z" fill="#000000" fill-rule="nonzero" fill-opacity="1"></path><path clip-path="url(#clip710)" d="M1069.42 127.197 Q1069.47 126.612 1070.38 126.612 L1099.78 126.612 Q1101.16 126.612 1101.18 127.15 Q1101.18 127.736 1099.87 127.713 L1070.71 127.713 Q1069.42 127.736 1069.42 127.197 M1069.42 117.828 Q1069.42 117.243 1070.43 117.266 L1099.73 117.266 Q1101.16 117.266 1101.18 117.828 Q1101.18 118.367 1099.97 118.367 L1070.38 118.367 Q1069.42 118.367 1069.42 117.828 Z" fill="#000000" fill-rule="nonzero" fill-opacity="1"></path><path clip-path="url(#clip710)" d="M1119.67 107.101 L1119.67 105.602 Q1125.44 105.602 1128.41 102.533 Q1129.23 102.533 1129.37 102.721 Q1129.51 102.908 1129.51 103.775 L1129.51 130.687 Q1129.51 132.116 1130.21 132.561 Q1130.92 133.006 1133.99 133.006 L1135.51 133.006 L1135.51 134.482 Q1133.82 134.341 1127.73 134.341 Q1121.64 134.341 1119.98 134.482 L1119.98 133.006 L1121.5 133.006 Q1124.52 133.006 1125.25 132.584 Q1125.98 132.139 1125.98 130.687 L1125.98 105.836 Q1123.47 107.101 1119.67 107.101 Z" fill="#000000" fill-rule="nonzero" fill-opacity="1"></path><path clip-path="url(#clip710)" d="M1420.67 642.531 L2352.76 642.531 L2352.76 47.2441 L1420.67 47.2441  Z" fill="#ffffff" fill-rule="evenodd" fill-opacity="1"></path>
<defs>
  <clipPath id="clip713">
    <rect x="1420" y="47" width="933" height="596"></rect>
  </clipPath>
</defs>
<polyline clip-path="url(#clip713)" style="stroke:#000000; stroke-linecap:round; stroke-linejoin:round; stroke-width:2; stroke-opacity:0.1; fill:none" points="1447.05,642.531 1447.05,47.2441 "></polyline>
<polyline clip-path="url(#clip713)" style="stroke:#000000; stroke-linecap:round; stroke-linejoin:round; stroke-width:2; stroke-opacity:0.1; fill:none" points="1797.49,642.531 1797.49,47.2441 "></polyline>
<polyline clip-path="url(#clip713)" style="stroke:#000000; stroke-linecap:round; stroke-linejoin:round; stroke-width:2; stroke-opacity:0.1; fill:none" points="2147.93,642.531 2147.93,47.2441 "></polyline>
<polyline clip-path="url(#clip710)" style="stroke:#000000; stroke-linecap:round; stroke-linejoin:round; stroke-width:4; stroke-opacity:1; fill:none" points="1420.67,642.531 2352.76,642.531 "></polyline>
<polyline clip-path="url(#clip710)" style="stroke:#000000; stroke-linecap:round; stroke-linejoin:round; stroke-width:4; stroke-opacity:1; fill:none" points="1447.05,642.531 1447.05,623.633 "></polyline>
<polyline clip-path="url(#clip710)" style="stroke:#000000; stroke-linecap:round; stroke-linejoin:round; stroke-width:4; stroke-opacity:1; fill:none" points="1797.49,642.531 1797.49,623.633 "></polyline>
<polyline clip-path="url(#clip710)" style="stroke:#000000; stroke-linecap:round; stroke-linejoin:round; stroke-width:4; stroke-opacity:1; fill:none" points="2147.93,642.531 2147.93,623.633 "></polyline>
<path clip-path="url(#clip710)" d="M1412.03 716.655 L1419.67 716.655 L1419.67 690.29 L1411.36 691.957 L1411.36 687.697 L1419.62 686.031 L1424.3 686.031 L1424.3 716.655 L1431.94 716.655 L1431.94 720.591 L1412.03 720.591 L1412.03 716.655 Z" fill="#000000" fill-rule="nonzero" fill-opacity="1"></path><path clip-path="url(#clip710)" d="M1451.38 689.109 Q1447.77 689.109 1445.94 692.674 Q1444.14 696.216 1444.14 703.345 Q1444.14 710.452 1445.94 714.017 Q1447.77 717.558 1451.38 717.558 Q1455.02 717.558 1456.82 714.017 Q1458.65 710.452 1458.65 703.345 Q1458.65 696.216 1456.82 692.674 Q1455.02 689.109 1451.38 689.109 M1451.38 685.406 Q1457.19 685.406 1460.25 690.012 Q1463.33 694.595 1463.33 703.345 Q1463.33 712.072 1460.25 716.679 Q1457.19 721.262 1451.38 721.262 Q1445.57 721.262 1442.49 716.679 Q1439.44 712.072 1439.44 703.345 Q1439.44 694.595 1442.49 690.012 Q1445.57 685.406 1451.38 685.406 Z" fill="#000000" fill-rule="nonzero" fill-opacity="1"></path><path clip-path="url(#clip710)" d="M1473.03 667.602 Q1470.1 667.602 1468.61 670.498 Q1467.15 673.376 1467.15 679.168 Q1467.15 684.942 1468.61 687.839 Q1470.1 690.716 1473.03 690.716 Q1475.99 690.716 1477.45 687.839 Q1478.94 684.942 1478.94 679.168 Q1478.94 673.376 1477.45 670.498 Q1475.99 667.602 1473.03 667.602 M1473.03 664.592 Q1477.75 664.592 1480.24 668.335 Q1482.74 672.059 1482.74 679.168 Q1482.74 686.259 1480.24 690.002 Q1477.75 693.726 1473.03 693.726 Q1468.31 693.726 1465.81 690.002 Q1463.33 686.259 1463.33 679.168 Q1463.33 672.059 1465.81 668.335 Q1468.31 664.592 1473.03 664.592 Z" fill="#000000" fill-rule="nonzero" fill-opacity="1"></path><path clip-path="url(#clip710)" d="M1763.82 716.655 L1771.46 716.655 L1771.46 690.29 L1763.15 691.957 L1763.15 687.697 L1771.41 686.031 L1776.09 686.031 L1776.09 716.655 L1783.72 716.655 L1783.72 720.591 L1763.82 720.591 L1763.82 716.655 Z" fill="#000000" fill-rule="nonzero" fill-opacity="1"></path><path clip-path="url(#clip710)" d="M1803.17 689.109 Q1799.56 689.109 1797.73 692.674 Q1795.92 696.216 1795.92 703.345 Q1795.92 710.452 1797.73 714.017 Q1799.56 717.558 1803.17 717.558 Q1806.8 717.558 1808.61 714.017 Q1810.44 710.452 1810.44 703.345 Q1810.44 696.216 1808.61 692.674 Q1806.8 689.109 1803.17 689.109 M1803.17 685.406 Q1808.98 685.406 1812.03 690.012 Q1815.11 694.595 1815.11 703.345 Q1815.11 712.072 1812.03 716.679 Q1808.98 721.262 1803.17 721.262 Q1797.36 721.262 1794.28 716.679 Q1791.22 712.072 1791.22 703.345 Q1791.22 694.595 1794.28 690.012 Q1797.36 685.406 1803.17 685.406 Z" fill="#000000" fill-rule="nonzero" fill-opacity="1"></path><path clip-path="url(#clip710)" d="M1815.66 689.983 L1821.87 689.983 L1821.87 668.561 L1815.11 669.915 L1815.11 666.454 L1821.83 665.1 L1825.63 665.1 L1825.63 689.983 L1831.83 689.983 L1831.83 693.18 L1815.66 693.18 L1815.66 689.983 Z" fill="#000000" fill-rule="nonzero" fill-opacity="1"></path><path clip-path="url(#clip710)" d="M2113.7 716.655 L2121.34 716.655 L2121.34 690.29 L2113.03 691.957 L2113.03 687.697 L2121.3 686.031 L2125.97 686.031 L2125.97 716.655 L2133.61 716.655 L2133.61 720.591 L2113.7 720.591 L2113.7 716.655 Z" fill="#000000" fill-rule="nonzero" fill-opacity="1"></path><path clip-path="url(#clip710)" d="M2153.06 689.109 Q2149.44 689.109 2147.62 692.674 Q2145.81 696.216 2145.81 703.345 Q2145.81 710.452 2147.62 714.017 Q2149.44 717.558 2153.06 717.558 Q2156.69 717.558 2158.49 714.017 Q2160.32 710.452 2160.32 703.345 Q2160.32 696.216 2158.49 692.674 Q2156.69 689.109 2153.06 689.109 M2153.06 685.406 Q2158.87 685.406 2161.92 690.012 Q2165 694.595 2165 703.345 Q2165 712.072 2161.92 716.679 Q2158.87 721.262 2153.06 721.262 Q2147.24 721.262 2144.17 716.679 Q2141.11 712.072 2141.11 703.345 Q2141.11 694.595 2144.17 690.012 Q2147.24 685.406 2153.06 685.406 Z" fill="#000000" fill-rule="nonzero" fill-opacity="1"></path><path clip-path="url(#clip710)" d="M2169.57 689.983 L2182.83 689.983 L2182.83 693.18 L2165 693.18 L2165 689.983 Q2167.16 687.745 2170.89 683.983 Q2174.63 680.203 2175.59 679.112 Q2177.41 677.062 2178.13 675.651 Q2178.86 674.222 2178.86 672.849 Q2178.86 670.611 2177.28 669.2 Q2175.72 667.79 2173.2 667.79 Q2171.41 667.79 2169.42 668.41 Q2167.44 669.031 2165.19 670.291 L2165.19 666.454 Q2167.48 665.533 2169.48 665.063 Q2171.47 664.592 2173.12 664.592 Q2177.49 664.592 2180.08 666.774 Q2182.68 668.956 2182.68 672.605 Q2182.68 674.335 2182.02 675.896 Q2181.38 677.438 2179.67 679.545 Q2179.2 680.09 2176.68 682.704 Q2174.16 685.3 2169.57 689.983 Z" fill="#000000" fill-rule="nonzero" fill-opacity="1"></path><polyline clip-path="url(#clip713)" style="stroke:#000000; stroke-linecap:round; stroke-linejoin:round; stroke-width:2; stroke-opacity:0.1; fill:none" points="1420.67,470.142 2352.76,470.142 "></polyline>
<polyline clip-path="url(#clip713)" style="stroke:#000000; stroke-linecap:round; stroke-linejoin:round; stroke-width:2; stroke-opacity:0.1; fill:none" points="1420.67,268.517 2352.76,268.517 "></polyline>
<polyline clip-path="url(#clip713)" style="stroke:#000000; stroke-linecap:round; stroke-linejoin:round; stroke-width:2; stroke-opacity:0.1; fill:none" points="1420.67,66.8923 2352.76,66.8923 "></polyline>
<polyline clip-path="url(#clip710)" style="stroke:#000000; stroke-linecap:round; stroke-linejoin:round; stroke-width:4; stroke-opacity:1; fill:none" points="1420.67,642.531 1420.67,47.2441 "></polyline>
<polyline clip-path="url(#clip710)" style="stroke:#000000; stroke-linecap:round; stroke-linejoin:round; stroke-width:4; stroke-opacity:1; fill:none" points="1420.67,470.142 1439.57,470.142 "></polyline>
<polyline clip-path="url(#clip710)" style="stroke:#000000; stroke-linecap:round; stroke-linejoin:round; stroke-width:4; stroke-opacity:1; fill:none" points="1420.67,268.517 1439.57,268.517 "></polyline>
<polyline clip-path="url(#clip710)" style="stroke:#000000; stroke-linecap:round; stroke-linejoin:round; stroke-width:4; stroke-opacity:1; fill:none" points="1420.67,66.8923 1439.57,66.8923 "></polyline>
<path clip-path="url(#clip710)" d="M1283.76 489.934 L1291.4 489.934 L1291.4 463.568 L1283.09 465.235 L1283.09 460.976 L1291.35 459.309 L1296.03 459.309 L1296.03 489.934 L1303.67 489.934 L1303.67 493.869 L1283.76 493.869 L1283.76 489.934 Z" fill="#000000" fill-rule="nonzero" fill-opacity="1"></path><path clip-path="url(#clip710)" d="M1323.11 462.388 Q1319.5 462.388 1317.67 465.953 Q1315.86 469.494 1315.86 476.624 Q1315.86 483.73 1317.67 487.295 Q1319.5 490.837 1323.11 490.837 Q1326.74 490.837 1328.55 487.295 Q1330.38 483.73 1330.38 476.624 Q1330.38 469.494 1328.55 465.953 Q1326.74 462.388 1323.11 462.388 M1323.11 458.684 Q1328.92 458.684 1331.98 463.291 Q1335.05 467.874 1335.05 476.624 Q1335.05 485.351 1331.98 489.957 Q1328.92 494.54 1323.11 494.54 Q1317.3 494.54 1314.22 489.957 Q1311.17 485.351 1311.17 476.624 Q1311.17 467.874 1314.22 463.291 Q1317.3 458.684 1323.11 458.684 Z" fill="#000000" fill-rule="nonzero" fill-opacity="1"></path><path clip-path="url(#clip710)" d="M1335.05 452.785 L1359.17 452.785 L1359.17 455.983 L1335.05 455.983 L1335.05 452.785 Z" fill="#000000" fill-rule="nonzero" fill-opacity="1"></path><path clip-path="url(#clip710)" d="M1378.88 451.318 Q1381.6 451.902 1383.13 453.745 Q1384.67 455.588 1384.67 458.296 Q1384.67 462.453 1381.81 464.728 Q1378.95 467.004 1373.69 467.004 Q1371.92 467.004 1370.04 466.647 Q1368.17 466.308 1366.18 465.612 L1366.18 461.945 Q1367.76 462.866 1369.64 463.337 Q1371.52 463.807 1373.57 463.807 Q1377.15 463.807 1379.01 462.396 Q1380.89 460.986 1380.89 458.296 Q1380.89 455.814 1379.14 454.422 Q1377.41 453.011 1374.31 453.011 L1371.03 453.011 L1371.03 449.889 L1374.46 449.889 Q1377.26 449.889 1378.74 448.779 Q1380.23 447.651 1380.23 445.544 Q1380.23 443.382 1378.69 442.234 Q1377.16 441.068 1374.31 441.068 Q1372.75 441.068 1370.96 441.407 Q1369.17 441.745 1367.03 442.46 L1367.03 439.075 Q1369.19 438.473 1371.07 438.172 Q1372.97 437.871 1374.64 437.871 Q1378.97 437.871 1381.49 439.846 Q1384.01 441.802 1384.01 445.15 Q1384.01 447.482 1382.68 449.099 Q1381.34 450.698 1378.88 451.318 Z" fill="#000000" fill-rule="nonzero" fill-opacity="1"></path><path clip-path="url(#clip710)" d="M1284.53 288.309 L1292.17 288.309 L1292.17 261.944 L1283.86 263.61 L1283.86 259.351 L1292.12 257.684 L1296.8 257.684 L1296.8 288.309 L1304.44 288.309 L1304.44 292.244 L1284.53 292.244 L1284.53 288.309 Z" fill="#000000" fill-rule="nonzero" fill-opacity="1"></path><path clip-path="url(#clip710)" d="M1323.88 260.763 Q1320.27 260.763 1318.44 264.328 Q1316.64 267.87 1316.64 274.999 Q1316.64 282.106 1318.44 285.67 Q1320.27 289.212 1323.88 289.212 Q1327.52 289.212 1329.32 285.67 Q1331.15 282.106 1331.15 274.999 Q1331.15 267.87 1329.32 264.328 Q1327.52 260.763 1323.88 260.763 M1323.88 257.059 Q1329.69 257.059 1332.75 261.666 Q1335.83 266.249 1335.83 274.999 Q1335.83 283.726 1332.75 288.332 Q1329.69 292.916 1323.88 292.916 Q1318.07 292.916 1314.99 288.332 Q1311.94 283.726 1311.94 274.999 Q1311.94 266.249 1314.99 261.666 Q1318.07 257.059 1323.88 257.059 Z" fill="#000000" fill-rule="nonzero" fill-opacity="1"></path><path clip-path="url(#clip710)" d="M1335.83 251.161 L1359.94 251.161 L1359.94 254.358 L1335.83 254.358 L1335.83 251.161 Z" fill="#000000" fill-rule="nonzero" fill-opacity="1"></path><path clip-path="url(#clip710)" d="M1371.41 261.637 L1384.67 261.637 L1384.67 264.834 L1366.84 264.834 L1366.84 261.637 Q1369 259.399 1372.73 255.637 Q1376.47 251.857 1377.43 250.766 Q1379.25 248.716 1379.97 247.305 Q1380.7 245.876 1380.7 244.503 Q1380.7 242.265 1379.12 240.854 Q1377.56 239.444 1375.04 239.444 Q1373.25 239.444 1371.26 240.064 Q1369.28 240.685 1367.03 241.945 L1367.03 238.108 Q1369.32 237.187 1371.32 236.716 Q1373.31 236.246 1374.96 236.246 Q1379.33 236.246 1381.92 238.428 Q1384.52 240.61 1384.52 244.258 Q1384.52 245.989 1383.86 247.55 Q1383.22 249.092 1381.51 251.198 Q1381.04 251.744 1378.52 254.358 Q1376 256.954 1371.41 261.637 Z" fill="#000000" fill-rule="nonzero" fill-opacity="1"></path><path clip-path="url(#clip710)" d="M1284.23 86.6847 L1291.87 86.6847 L1291.87 60.3191 L1283.56 61.9858 L1283.56 57.7265 L1291.82 56.0599 L1296.5 56.0599 L1296.5 86.6847 L1304.14 86.6847 L1304.14 90.6199 L1284.23 90.6199 L1284.23 86.6847 Z" fill="#000000" fill-rule="nonzero" fill-opacity="1"></path><path clip-path="url(#clip710)" d="M1323.58 59.1385 Q1319.97 59.1385 1318.14 62.7033 Q1316.33 66.245 1316.33 73.3746 Q1316.33 80.481 1318.14 84.0458 Q1319.97 87.5875 1323.58 87.5875 Q1327.21 87.5875 1329.02 84.0458 Q1330.85 80.481 1330.85 73.3746 Q1330.85 66.245 1329.02 62.7033 Q1327.21 59.1385 1323.58 59.1385 M1323.58 55.4349 Q1329.39 55.4349 1332.45 60.0413 Q1335.52 64.6246 1335.52 73.3746 Q1335.52 82.1014 1332.45 86.7078 Q1329.39 91.2912 1323.58 91.2912 Q1317.77 91.2912 1314.69 86.7078 Q1311.64 82.1014 1311.64 73.3746 Q1311.64 64.6246 1314.69 60.0413 Q1317.77 55.4349 1323.58 55.4349 Z" fill="#000000" fill-rule="nonzero" fill-opacity="1"></path><path clip-path="url(#clip710)" d="M1335.52 49.5362 L1359.64 49.5362 L1359.64 52.7335 L1335.52 52.7335 L1335.52 49.5362 Z" fill="#000000" fill-rule="nonzero" fill-opacity="1"></path><path clip-path="url(#clip710)" d="M1368.49 60.0121 L1374.7 60.0121 L1374.7 38.5901 L1367.95 39.9443 L1367.95 36.4836 L1374.66 35.1295 L1378.46 35.1295 L1378.46 60.0121 L1384.67 60.0121 L1384.67 63.2095 L1368.49 63.2095 L1368.49 60.0121 Z" fill="#000000" fill-rule="nonzero" fill-opacity="1"></path><polyline clip-path="url(#clip713)" style="stroke:#009af9; stroke-linecap:round; stroke-linejoin:round; stroke-width:4; stroke-opacity:1; fill:none" points="1447.05,65.6853 1552.54,64.0918 1614.25,84.1712 1658.04,95.9413 1692,110.513 1719.74,131.342 1743.21,135.785 1763.53,146.875 1781.45,170.479 1797.49,176.486 1812,194.867 1825.24,201.504 1837.42,192.347 1848.7,220.7 1859.2,226.925 1869.02,222.434 1878.25,212.51 1886.95,229.735 1895.18,241.973 1902.98,248.8 1910.41,246.465 1917.49,261.513 1924.25,265.716 1930.73,279.694 1936.94,268.636 1942.91,290.43 1948.66,294.322 1954.19,281.395 1959.53,307.16 1964.69,316.899 1969.68,327.859 1974.52,309.495 1979.2,324.988 1983.74,309.495 1988.15,330.827 1992.44,337.085 1996.61,343.824 2000.67,330.827 2004.62,367.855 2008.48,355.017 2012.23,333.9 2015.9,394.595 2019.48,377.594 2022.98,359.091 2026.4,377.594 2029.75,394.595 2033.02,415.713 2036.22,388.554 2039.36,424.058 2042.44,408.093 2045.45,401.085 2048.41,401.085 2051.31,484.753 2054.15,443.598 2056.94,408.093 2059.69,504.293 2062.38,388.554 2065.03,484.753 2067.63,484.753 2070.19,484.753 2072.7,433.284 2075.18,468.788 2077.61,484.753 2080.01,484.753 2082.37,468.788 2084.69,468.788 2086.98,504.293 2089.23,564.988 2091.46,564.988 2093.65,564.988 2095.81,468.788 2097.93,484.753 2100.03,504.293 2102.1,529.484 2104.15,504.293 2106.16,564.988 2108.15,504.293 2110.12,484.753 2112.06,564.988 2113.97,529.484 2115.86,564.988 2117.73,529.484 2121.4,564.988 2123.2,504.293 2124.98,529.484 2126.74,564.988 2128.48,564.988 2130.19,564.988 2131.9,625.683 2133.58,625.683 2135.24,564.988 2136.89,564.988 2138.51,564.988 2140.12,564.988 2141.72,564.988 2146.4,529.484 2147.93,625.683 2150.94,564.988 2152.43,625.683 2153.9,564.988 2155.36,625.683 2156.8,625.683 2158.23,564.988 2159.64,625.683 2162.44,625.683 2163.81,529.484 2165.18,625.683 2166.53,564.988 2167.87,564.988 2169.2,625.683 2170.52,625.683 2173.12,564.988 2176.94,625.683 2179.44,625.683 2180.67,625.683 2186.69,625.683 2187.86,625.683 2189.03,625.683 2191.33,625.683 2195.84,625.683 2196.95,625.683 2199.14,625.683 2200.22,625.683 2201.3,625.683 2203.43,625.683 2204.48,564.988 2205.53,625.683 2207.6,625.683 2209.64,625.683 2216.58,625.683 2220.41,625.683 2225.07,625.683 2227.79,625.683 2230.47,625.683 2231.35,625.683 2238.23,625.683 2248,625.683 2258.66,625.683 2267.93,625.683 2269.31,625.683 2274.03,625.683 2276.67,625.683 2287.39,625.683 2326.38,625.683 "></polyline>
<path clip-path="url(#clip710)" d="M1938.83 170.767 L2321.69 170.767 L2321.69 67.087 L1938.83 67.087  Z" fill="#ffffff" fill-rule="evenodd" fill-opacity="1"></path>
<polyline clip-path="url(#clip710)" style="stroke:#000000; stroke-linecap:round; stroke-linejoin:round; stroke-width:4; stroke-opacity:1; fill:none" points="1938.83,170.767 2321.69,170.767 2321.69,67.087 1938.83,67.087 1938.83,170.767 "></polyline>
<polyline clip-path="url(#clip710)" style="stroke:#009af9; stroke-linecap:round; stroke-linejoin:round; stroke-width:4; stroke-opacity:1; fill:none" points="1949.18,118.927 2011.32,118.927 "></polyline>
<path clip-path="url(#clip710)" d="M2026.35 105.49 L2026.35 132.364 L2032 132.364 Q2039.16 132.364 2042.47 129.124 Q2045.8 125.883 2045.8 118.892 Q2045.8 111.948 2042.47 108.73 Q2039.16 105.49 2032 105.49 L2026.35 105.49 M2021.68 101.647 L2031.29 101.647 Q2041.33 101.647 2046.03 105.837 Q2050.73 110.003 2050.73 118.892 Q2050.73 127.827 2046.01 132.017 Q2041.28 136.207 2031.29 136.207 L2021.68 136.207 L2021.68 101.647 Z" fill="#000000" fill-rule="nonzero" fill-opacity="1"></path><path clip-path="url(#clip710)" d="M2069.78 123.175 Q2064.62 123.175 2062.63 124.355 Q2060.64 125.536 2060.64 128.383 Q2060.64 130.651 2062.12 131.994 Q2063.62 133.313 2066.19 133.313 Q2069.73 133.313 2071.86 130.813 Q2074.02 128.29 2074.02 124.124 L2074.02 123.175 L2069.78 123.175 M2078.28 121.415 L2078.28 136.207 L2074.02 136.207 L2074.02 132.272 Q2072.56 134.633 2070.38 135.767 Q2068.21 136.878 2065.06 136.878 Q2061.08 136.878 2058.72 134.656 Q2056.38 132.411 2056.38 128.661 Q2056.38 124.286 2059.29 122.064 Q2062.23 119.841 2068.04 119.841 L2074.02 119.841 L2074.02 119.425 Q2074.02 116.485 2072.07 114.888 Q2070.15 113.267 2066.66 113.267 Q2064.43 113.267 2062.33 113.8 Q2060.22 114.332 2058.28 115.397 L2058.28 111.462 Q2060.61 110.559 2062.81 110.119 Q2065.01 109.656 2067.1 109.656 Q2072.72 109.656 2075.5 112.573 Q2078.28 115.489 2078.28 121.415 Z" fill="#000000" fill-rule="nonzero" fill-opacity="1"></path><path clip-path="url(#clip710)" d="M2091.26 102.92 L2091.26 110.281 L2100.03 110.281 L2100.03 113.591 L2091.26 113.591 L2091.26 127.665 Q2091.26 130.837 2092.12 131.739 Q2093 132.642 2095.66 132.642 L2100.03 132.642 L2100.03 136.207 L2095.66 136.207 Q2090.73 136.207 2088.85 134.378 Q2086.98 132.526 2086.98 127.665 L2086.98 113.591 L2083.85 113.591 L2083.85 110.281 L2086.98 110.281 L2086.98 102.92 L2091.26 102.92 Z" fill="#000000" fill-rule="nonzero" fill-opacity="1"></path><path clip-path="url(#clip710)" d="M2115.68 113.267 Q2112.26 113.267 2110.27 115.952 Q2108.28 118.614 2108.28 123.267 Q2108.28 127.92 2110.24 130.605 Q2112.23 133.267 2115.68 133.267 Q2119.09 133.267 2121.08 130.582 Q2123.07 127.897 2123.07 123.267 Q2123.07 118.661 2121.08 115.976 Q2119.09 113.267 2115.68 113.267 M2115.68 109.656 Q2121.24 109.656 2124.41 113.267 Q2127.58 116.878 2127.58 123.267 Q2127.58 129.633 2124.41 133.267 Q2121.24 136.878 2115.68 136.878 Q2110.1 136.878 2106.93 133.267 Q2103.78 129.633 2103.78 123.267 Q2103.78 116.878 2106.93 113.267 Q2110.1 109.656 2115.68 109.656 Z" fill="#000000" fill-rule="nonzero" fill-opacity="1"></path><path clip-path="url(#clip710)" d="M2151.17 111.045 L2151.17 115.073 Q2149.36 114.147 2147.42 113.684 Q2145.47 113.221 2143.39 113.221 Q2140.22 113.221 2138.62 114.193 Q2137.05 115.165 2137.05 117.11 Q2137.05 118.591 2138.18 119.448 Q2139.32 120.281 2142.74 121.045 L2144.2 121.369 Q2148.74 122.341 2150.64 124.124 Q2152.56 125.883 2152.56 129.054 Q2152.56 132.665 2149.69 134.772 Q2146.84 136.878 2141.84 136.878 Q2139.76 136.878 2137.49 136.462 Q2135.24 136.068 2132.74 135.258 L2132.74 130.86 Q2135.1 132.087 2137.4 132.712 Q2139.69 133.313 2141.93 133.313 Q2144.94 133.313 2146.56 132.295 Q2148.18 131.253 2148.18 129.378 Q2148.18 127.642 2147 126.716 Q2145.84 125.79 2141.89 124.934 L2140.4 124.587 Q2136.45 123.753 2134.69 122.04 Q2132.93 120.304 2132.93 117.295 Q2132.93 113.638 2135.52 111.647 Q2138.11 109.656 2142.88 109.656 Q2145.24 109.656 2147.33 110.003 Q2149.41 110.351 2151.17 111.045 Z" fill="#000000" fill-rule="nonzero" fill-opacity="1"></path><path clip-path="url(#clip710)" d="M2189.43 114.263 Q2188.71 113.846 2187.86 113.661 Q2187.02 113.452 2186.01 113.452 Q2182.4 113.452 2180.45 115.814 Q2178.53 118.152 2178.53 122.55 L2178.53 136.207 L2174.25 136.207 L2174.25 110.281 L2178.53 110.281 L2178.53 114.309 Q2179.87 111.948 2182.02 110.814 Q2184.18 109.656 2187.26 109.656 Q2187.7 109.656 2188.23 109.726 Q2188.76 109.772 2189.41 109.888 L2189.43 114.263 Z" fill="#000000" fill-rule="nonzero" fill-opacity="1"></path><path clip-path="url(#clip710)" d="M2215.03 122.179 L2215.03 124.263 L2195.45 124.263 Q2195.73 128.661 2198.09 130.976 Q2200.47 133.267 2204.71 133.267 Q2207.16 133.267 2209.46 132.665 Q2211.77 132.063 2214.04 130.86 L2214.04 134.888 Q2211.75 135.86 2209.34 136.369 Q2206.93 136.878 2204.46 136.878 Q2198.25 136.878 2194.62 133.267 Q2191.01 129.656 2191.01 123.499 Q2191.01 117.133 2194.43 113.406 Q2197.88 109.656 2203.71 109.656 Q2208.95 109.656 2211.98 113.036 Q2215.03 116.392 2215.03 122.179 M2210.77 120.929 Q2210.73 117.434 2208.81 115.351 Q2206.91 113.267 2203.76 113.267 Q2200.2 113.267 2198.04 115.281 Q2195.91 117.295 2195.59 120.952 L2210.77 120.929 Z" fill="#000000" fill-rule="nonzero" fill-opacity="1"></path><path clip-path="url(#clip710)" d="M2233.81 123.175 Q2228.65 123.175 2226.65 124.355 Q2224.66 125.536 2224.66 128.383 Q2224.66 130.651 2226.15 131.994 Q2227.65 133.313 2230.22 133.313 Q2233.76 133.313 2235.89 130.813 Q2238.04 128.29 2238.04 124.124 L2238.04 123.175 L2233.81 123.175 M2242.3 121.415 L2242.3 136.207 L2238.04 136.207 L2238.04 132.272 Q2236.58 134.633 2234.41 135.767 Q2232.23 136.878 2229.08 136.878 Q2225.1 136.878 2222.74 134.656 Q2220.4 132.411 2220.4 128.661 Q2220.4 124.286 2223.32 122.064 Q2226.26 119.841 2232.07 119.841 L2238.04 119.841 L2238.04 119.425 Q2238.04 116.485 2236.1 114.888 Q2234.18 113.267 2230.68 113.267 Q2228.46 113.267 2226.35 113.8 Q2224.25 114.332 2222.3 115.397 L2222.3 111.462 Q2224.64 110.559 2226.84 110.119 Q2229.04 109.656 2231.12 109.656 Q2236.75 109.656 2239.52 112.573 Q2242.3 115.489 2242.3 121.415 Z" fill="#000000" fill-rule="nonzero" fill-opacity="1"></path><path clip-path="url(#clip710)" d="M2251.08 100.189 L2255.33 100.189 L2255.33 136.207 L2251.08 136.207 L2251.08 100.189 Z" fill="#000000" fill-rule="nonzero" fill-opacity="1"></path><path clip-path="url(#clip710)" d="M2286.42 122.179 L2286.42 124.263 L2266.84 124.263 Q2267.12 128.661 2269.48 130.976 Q2271.86 133.267 2276.1 133.267 Q2278.55 133.267 2280.84 132.665 Q2283.16 132.063 2285.43 130.86 L2285.43 134.888 Q2283.14 135.86 2280.73 136.369 Q2278.32 136.878 2275.84 136.878 Q2269.64 136.878 2266.01 133.267 Q2262.39 129.656 2262.39 123.499 Q2262.39 117.133 2265.82 113.406 Q2269.27 109.656 2275.1 109.656 Q2280.33 109.656 2283.37 113.036 Q2286.42 116.392 2286.42 122.179 M2282.16 120.929 Q2282.12 117.434 2280.2 115.351 Q2278.3 113.267 2275.15 113.267 Q2271.58 113.267 2269.43 115.281 Q2267.3 117.295 2266.98 120.952 L2282.16 120.929 Z" fill="#000000" fill-rule="nonzero" fill-opacity="1"></path><path clip-path="url(#clip710)" d="M2309.94 111.045 L2309.94 115.073 Q2308.14 114.147 2306.19 113.684 Q2304.25 113.221 2302.16 113.221 Q2298.99 113.221 2297.39 114.193 Q2295.82 115.165 2295.82 117.11 Q2295.82 118.591 2296.95 119.448 Q2298.09 120.281 2301.52 121.045 L2302.97 121.369 Q2307.51 122.341 2309.41 124.124 Q2311.33 125.883 2311.33 129.054 Q2311.33 132.665 2308.46 134.772 Q2305.61 136.878 2300.61 136.878 Q2298.53 136.878 2296.26 136.462 Q2294.02 136.068 2291.52 135.258 L2291.52 130.86 Q2293.88 132.087 2296.17 132.712 Q2298.46 133.313 2300.7 133.313 Q2303.71 133.313 2305.33 132.295 Q2306.95 131.253 2306.95 129.378 Q2306.95 127.642 2305.77 126.716 Q2304.62 125.79 2300.66 124.934 L2299.18 124.587 Q2295.22 123.753 2293.46 122.04 Q2291.7 120.304 2291.7 117.295 Q2291.7 113.638 2294.29 111.647 Q2296.89 109.656 2301.65 109.656 Q2304.02 109.656 2306.1 110.003 Q2308.18 110.351 2309.94 111.045 Z" fill="#000000" fill-rule="nonzero" fill-opacity="1"></path><path clip-path="url(#clip710)" d="M252.764 1410.9 L1184.85 1410.9 L1184.85 815.61 L252.764 815.61  Z" fill="#ffffff" fill-rule="evenodd" fill-opacity="1"></path>
<defs>
  <clipPath id="clip714">
    <rect x="252" y="815" width="933" height="596"></rect>
  </clipPath>
</defs>
<polyline clip-path="url(#clip714)" style="stroke:#000000; stroke-linecap:round; stroke-linejoin:round; stroke-width:2; stroke-opacity:0.1; fill:none" points="279.144,1410.9 279.144,815.61 "></polyline>
<polyline clip-path="url(#clip714)" style="stroke:#000000; stroke-linecap:round; stroke-linejoin:round; stroke-width:2; stroke-opacity:0.1; fill:none" points="835.756,1410.9 835.756,815.61 "></polyline>
<polyline clip-path="url(#clip710)" style="stroke:#000000; stroke-linecap:round; stroke-linejoin:round; stroke-width:4; stroke-opacity:1; fill:none" points="252.764,1410.9 1184.85,1410.9 "></polyline>
<polyline clip-path="url(#clip710)" style="stroke:#000000; stroke-linecap:round; stroke-linejoin:round; stroke-width:4; stroke-opacity:1; fill:none" points="279.144,1410.9 279.144,1392 "></polyline>
<polyline clip-path="url(#clip710)" style="stroke:#000000; stroke-linecap:round; stroke-linejoin:round; stroke-width:4; stroke-opacity:1; fill:none" points="835.756,1410.9 835.756,1392 "></polyline>
<path clip-path="url(#clip710)" d="M244.127 1485.02 L251.765 1485.02 L251.765 1458.66 L243.455 1460.32 L243.455 1456.06 L251.719 1454.4 L256.395 1454.4 L256.395 1485.02 L264.034 1485.02 L264.034 1488.96 L244.127 1488.96 L244.127 1485.02 Z" fill="#000000" fill-rule="nonzero" fill-opacity="1"></path><path clip-path="url(#clip710)" d="M283.478 1457.48 Q279.867 1457.48 278.038 1461.04 Q276.233 1464.58 276.233 1471.71 Q276.233 1478.82 278.038 1482.38 Q279.867 1485.92 283.478 1485.92 Q287.112 1485.92 288.918 1482.38 Q290.747 1478.82 290.747 1471.71 Q290.747 1464.58 288.918 1461.04 Q287.112 1457.48 283.478 1457.48 M283.478 1453.77 Q289.288 1453.77 292.344 1458.38 Q295.423 1462.96 295.423 1471.71 Q295.423 1480.44 292.344 1485.04 Q289.288 1489.63 283.478 1489.63 Q277.668 1489.63 274.589 1485.04 Q271.534 1480.44 271.534 1471.71 Q271.534 1462.96 274.589 1458.38 Q277.668 1453.77 283.478 1453.77 Z" fill="#000000" fill-rule="nonzero" fill-opacity="1"></path><path clip-path="url(#clip710)" d="M305.127 1435.97 Q302.193 1435.97 300.708 1438.86 Q299.241 1441.74 299.241 1447.53 Q299.241 1453.31 300.708 1456.2 Q302.193 1459.08 305.127 1459.08 Q308.08 1459.08 309.547 1456.2 Q311.033 1453.31 311.033 1447.53 Q311.033 1441.74 309.547 1438.86 Q308.08 1435.97 305.127 1435.97 M305.127 1432.96 Q309.848 1432.96 312.331 1436.7 Q314.832 1440.43 314.832 1447.53 Q314.832 1454.62 312.331 1458.37 Q309.848 1462.09 305.127 1462.09 Q300.407 1462.09 297.905 1458.37 Q295.423 1454.62 295.423 1447.53 Q295.423 1440.43 297.905 1436.7 Q300.407 1432.96 305.127 1432.96 Z" fill="#000000" fill-rule="nonzero" fill-opacity="1"></path><path clip-path="url(#clip710)" d="M802.084 1485.02 L809.723 1485.02 L809.723 1458.66 L801.412 1460.32 L801.412 1456.06 L809.676 1454.4 L814.352 1454.4 L814.352 1485.02 L821.991 1485.02 L821.991 1488.96 L802.084 1488.96 L802.084 1485.02 Z" fill="#000000" fill-rule="nonzero" fill-opacity="1"></path><path clip-path="url(#clip710)" d="M841.435 1457.48 Q837.824 1457.48 835.996 1461.04 Q834.19 1464.58 834.19 1471.71 Q834.19 1478.82 835.996 1482.38 Q837.824 1485.92 841.435 1485.92 Q845.07 1485.92 846.875 1482.38 Q848.704 1478.82 848.704 1471.71 Q848.704 1464.58 846.875 1461.04 Q845.07 1457.48 841.435 1457.48 M841.435 1453.77 Q847.246 1453.77 850.301 1458.38 Q853.38 1462.96 853.38 1471.71 Q853.38 1480.44 850.301 1485.04 Q847.246 1489.63 841.435 1489.63 Q835.625 1489.63 832.547 1485.04 Q829.491 1480.44 829.491 1471.71 Q829.491 1462.96 832.547 1458.38 Q835.625 1453.77 841.435 1453.77 Z" fill="#000000" fill-rule="nonzero" fill-opacity="1"></path><path clip-path="url(#clip710)" d="M853.925 1458.35 L860.132 1458.35 L860.132 1436.93 L853.38 1438.28 L853.38 1434.82 L860.094 1433.47 L863.893 1433.47 L863.893 1458.35 L870.1 1458.35 L870.1 1461.55 L853.925 1461.55 L853.925 1458.35 Z" fill="#000000" fill-rule="nonzero" fill-opacity="1"></path><path clip-path="url(#clip710)" d="M731.644 1542.98 Q731.644 1544.81 730.517 1545.91 Q729.422 1547 728.037 1547 Q726.813 1547 726.169 1546.3 Q725.525 1545.59 725.525 1544.69 Q725.525 1544.3 725.686 1543.82 Q725.847 1543.3 726.202 1542.69 Q726.588 1542.08 727.393 1541.63 Q728.198 1541.18 729.293 1541.11 Q729.068 1540.89 729.003 1540.85 Q728.52 1540.47 727.619 1540.34 Q727.49 1540.27 727.039 1540.27 Q724.817 1540.27 722.562 1541.92 Q720.34 1543.53 717.603 1546.59 Q714.157 1550.16 711.934 1551.48 Q721.693 1552.77 721.693 1558.41 Q721.693 1559.34 721.435 1560.47 Q720.92 1562.59 720.92 1564.14 Q720.92 1567.23 723.013 1567.23 Q725.042 1567.23 726.33 1565.17 Q727.651 1563.11 728.746 1559.08 Q728.907 1558.34 729.068 1558.12 Q729.229 1557.89 729.68 1557.89 Q730.485 1557.89 730.485 1558.53 Q729.744 1562.3 728.102 1565.2 Q726.008 1568.71 722.884 1568.71 Q720.276 1568.71 718.537 1566.91 Q716.83 1565.07 716.83 1562.17 Q716.83 1561.46 717.087 1559.85 Q717.281 1559.21 717.281 1558.47 Q717.281 1556.96 716.443 1555.83 Q715.606 1554.67 714.253 1554.09 Q712.901 1553.51 711.773 1553.25 Q710.678 1552.96 709.616 1552.87 Q706.395 1566.49 705.944 1567.33 Q705.654 1567.91 705.01 1568.29 Q704.366 1568.71 703.69 1568.71 Q703.046 1568.71 702.401 1568.26 Q701.789 1567.84 701.789 1566.84 Q701.789 1566.33 702.047 1565.39 L711.612 1527.39 L711.806 1526.1 Q711.806 1525.72 711.644 1525.52 Q711.516 1525.3 710.743 1525.14 Q710.002 1524.98 708.521 1524.98 Q707.909 1524.98 707.619 1524.94 Q707.361 1524.91 707.136 1524.75 Q706.91 1524.56 706.91 1524.17 Q706.91 1523.62 707.136 1523.33 Q707.393 1523.01 707.587 1522.95 Q707.78 1522.88 708.166 1522.85 Q708.714 1522.82 710.549 1522.66 Q712.385 1522.46 713.963 1522.33 Q715.541 1522.21 716.218 1522.21 Q716.604 1522.21 716.797 1522.4 Q717.023 1522.56 717.055 1522.75 L717.087 1522.91 L710.227 1550.74 Q713.062 1549.61 717.538 1544.62 Q722.723 1538.82 727.168 1538.82 Q729.261 1538.82 730.453 1540.11 Q731.644 1541.37 731.644 1542.98 Z" fill="#000000" fill-rule="nonzero" fill-opacity="1"></path><polyline clip-path="url(#clip714)" style="stroke:#000000; stroke-linecap:round; stroke-linejoin:round; stroke-width:2; stroke-opacity:0.1; fill:none" points="252.764,1275.97 1184.85,1275.97 "></polyline>
<polyline clip-path="url(#clip714)" style="stroke:#000000; stroke-linecap:round; stroke-linejoin:round; stroke-width:2; stroke-opacity:0.1; fill:none" points="252.764,1039.83 1184.85,1039.83 "></polyline>
<polyline clip-path="url(#clip710)" style="stroke:#000000; stroke-linecap:round; stroke-linejoin:round; stroke-width:4; stroke-opacity:1; fill:none" points="252.764,1410.9 252.764,815.61 "></polyline>
<polyline clip-path="url(#clip710)" style="stroke:#000000; stroke-linecap:round; stroke-linejoin:round; stroke-width:4; stroke-opacity:1; fill:none" points="252.764,1275.97 271.662,1275.97 "></polyline>
<polyline clip-path="url(#clip710)" style="stroke:#000000; stroke-linecap:round; stroke-linejoin:round; stroke-width:4; stroke-opacity:1; fill:none" points="252.764,1039.83 271.662,1039.83 "></polyline>
<path clip-path="url(#clip710)" d="M114.931 1295.77 L122.57 1295.77 L122.57 1269.4 L114.26 1271.07 L114.26 1266.81 L122.524 1265.14 L127.2 1265.14 L127.2 1295.77 L134.839 1295.77 L134.839 1299.7 L114.931 1299.7 L114.931 1295.77 Z" fill="#000000" fill-rule="nonzero" fill-opacity="1"></path><path clip-path="url(#clip710)" d="M154.283 1268.22 Q150.672 1268.22 148.843 1271.78 Q147.038 1275.33 147.038 1282.46 Q147.038 1289.56 148.843 1293.13 Q150.672 1296.67 154.283 1296.67 Q157.917 1296.67 159.723 1293.13 Q161.552 1289.56 161.552 1282.46 Q161.552 1275.33 159.723 1271.78 Q157.917 1268.22 154.283 1268.22 M154.283 1264.52 Q160.093 1264.52 163.149 1269.12 Q166.227 1273.71 166.227 1282.46 Q166.227 1291.18 163.149 1295.79 Q160.093 1300.37 154.283 1300.37 Q148.473 1300.37 145.394 1295.79 Q142.339 1291.18 142.339 1282.46 Q142.339 1273.71 145.394 1269.12 Q148.473 1264.52 154.283 1264.52 Z" fill="#000000" fill-rule="nonzero" fill-opacity="1"></path><path clip-path="url(#clip710)" d="M166.227 1258.62 L190.339 1258.62 L190.339 1261.81 L166.227 1261.81 L166.227 1258.62 Z" fill="#000000" fill-rule="nonzero" fill-opacity="1"></path><path clip-path="url(#clip710)" d="M208.978 1247.52 L199.386 1262.51 L208.978 1262.51 L208.978 1247.52 M207.981 1244.21 L212.758 1244.21 L212.758 1262.51 L216.764 1262.51 L216.764 1265.67 L212.758 1265.67 L212.758 1272.29 L208.978 1272.29 L208.978 1265.67 L196.301 1265.67 L196.301 1262 L207.981 1244.21 Z" fill="#000000" fill-rule="nonzero" fill-opacity="1"></path><path clip-path="url(#clip710)" d="M116.624 1059.62 L124.263 1059.62 L124.263 1033.25 L115.953 1034.92 L115.953 1030.66 L124.217 1028.99 L128.893 1028.99 L128.893 1059.62 L136.531 1059.62 L136.531 1063.55 L116.624 1063.55 L116.624 1059.62 Z" fill="#000000" fill-rule="nonzero" fill-opacity="1"></path><path clip-path="url(#clip710)" d="M155.976 1032.07 Q152.365 1032.07 150.536 1035.64 Q148.73 1039.18 148.73 1046.31 Q148.73 1053.41 150.536 1056.98 Q152.365 1060.52 155.976 1060.52 Q159.61 1060.52 161.416 1056.98 Q163.244 1053.41 163.244 1046.31 Q163.244 1039.18 161.416 1035.64 Q159.61 1032.07 155.976 1032.07 M155.976 1028.37 Q161.786 1028.37 164.841 1032.97 Q167.92 1037.56 167.92 1046.31 Q167.92 1055.03 164.841 1059.64 Q161.786 1064.22 155.976 1064.22 Q150.166 1064.22 147.087 1059.64 Q144.031 1055.03 144.031 1046.31 Q144.031 1037.56 147.087 1032.97 Q150.166 1028.37 155.976 1028.37 Z" fill="#000000" fill-rule="nonzero" fill-opacity="1"></path><path clip-path="url(#clip710)" d="M167.92 1022.47 L192.032 1022.47 L192.032 1025.67 L167.92 1025.67 L167.92 1022.47 Z" fill="#000000" fill-rule="nonzero" fill-opacity="1"></path><path clip-path="url(#clip710)" d="M203.504 1032.95 L216.764 1032.95 L216.764 1036.14 L198.934 1036.14 L198.934 1032.95 Q201.097 1030.71 204.821 1026.95 Q208.564 1023.17 209.523 1022.07 Q211.347 1020.02 212.062 1018.61 Q212.796 1017.18 212.796 1015.81 Q212.796 1013.57 211.216 1012.16 Q209.655 1010.75 207.134 1010.75 Q205.348 1010.75 203.354 1011.37 Q201.379 1011.99 199.122 1013.25 L199.122 1009.42 Q201.417 1008.5 203.41 1008.02 Q205.404 1007.55 207.059 1007.55 Q211.423 1007.55 214.018 1009.74 Q216.613 1011.92 216.613 1015.57 Q216.613 1017.3 215.955 1018.86 Q215.316 1020.4 213.604 1022.51 Q213.134 1023.05 210.614 1025.67 Q208.094 1028.26 203.504 1032.95 Z" fill="#000000" fill-rule="nonzero" fill-opacity="1"></path><path clip-path="url(#clip710)" d="M30.9797 1135.15 Q34.5868 1135.15 37.904 1137.82 Q41.2212 1140.46 43.2501 1144.78 Q45.2469 1149.06 45.2469 1153.67 L45.2469 1164.87 L61.7363 1168.96 Q61.8329 1169 62.2516 1169.09 Q62.6381 1169.19 62.8635 1169.19 Q63.6687 1169.19 63.8619 1168.19 Q64.0551 1167.16 64.0551 1164.87 Q64.0551 1163.39 64.3128 1163.17 Q64.4738 1163.04 64.7637 1163.04 Q65.2145 1163.04 65.5366 1163.17 Q65.8264 1163.29 65.9231 1163.55 Q66.0197 1163.78 66.0519 1163.94 Q66.0841 1164.1 66.0841 1164.36 Q66.0841 1165.03 66.0197 1166.48 Q65.9553 1167.9 65.9553 1168.64 L65.8909 1172.86 L66.0841 1181.23 Q66.0841 1182.23 65.2789 1182.23 Q64.667 1182.23 64.4094 1181.97 Q64.1195 1181.72 64.0873 1181.43 Q64.0551 1181.14 64.0551 1180.4 Q64.0551 1178.79 63.9585 1177.82 Q63.8619 1176.85 63.7331 1176.24 Q63.572 1175.6 63.1212 1175.28 Q62.6703 1174.92 62.2838 1174.76 Q61.8651 1174.6 60.9312 1174.37 L25.5047 1165.55 Q24.4419 1165.29 24.2809 1165.29 Q23.7334 1165.29 23.5402 1165.61 Q23.3147 1165.9 23.2181 1166.74 Q23.0893 1168.35 23.0893 1169.58 Q23.0893 1170.38 23.0571 1170.7 Q23.0249 1170.99 22.8638 1171.25 Q22.6706 1171.48 22.2841 1171.48 Q21.6722 1171.48 21.4146 1171.22 Q21.1247 1170.93 21.0925 1170.61 Q21.0281 1170.28 21.0281 1169.51 L21.0281 1148.13 Q21.0281 1141.97 23.9588 1138.56 Q26.8896 1135.15 30.9797 1135.15 M29.4016 1141.27 Q23.0893 1141.27 23.0893 1150.25 L23.0893 1156.56 Q23.0893 1158.66 23.4757 1159.17 Q23.83 1159.69 25.6013 1160.14 L43.54 1164.62 L43.54 1155.31 Q43.54 1149.06 40.0296 1145.16 Q38.4193 1143.39 35.0699 1142.33 Q31.7204 1141.27 29.4016 1141.27 Z" fill="#000000" fill-rule="nonzero" fill-opacity="1"></path><path clip-path="url(#clip710)" d="M49.5947 1127.91 Q38.4515 1127.91 29.466 1123.75 Q25.6979 1121.98 22.5418 1119.5 Q19.3856 1117.02 18.0007 1115.38 Q16.6159 1113.74 16.6159 1113.29 Q16.6159 1112.64 17.26 1112.61 Q17.5821 1112.61 18.3872 1113.48 Q29.2084 1124.11 49.5947 1124.08 Q70.0454 1124.08 80.4479 1113.74 Q81.5751 1112.61 81.9294 1112.61 Q82.5735 1112.61 82.5735 1113.29 Q82.5735 1113.74 81.2531 1115.32 Q79.9326 1116.89 76.9053 1119.34 Q73.8779 1121.79 70.1742 1123.56 Q61.1888 1127.91 49.5947 1127.91 Z" fill="#000000" fill-rule="nonzero" fill-opacity="1"></path><path clip-path="url(#clip710)" d="M41.0923 1076.69 Q42.9281 1076.69 44.0231 1077.81 Q45.1181 1078.91 45.1181 1080.29 Q45.1181 1081.52 44.4096 1082.16 Q43.701 1082.81 42.7993 1082.81 Q42.4128 1082.81 41.9297 1082.65 Q41.4144 1082.48 40.8025 1082.13 Q40.1906 1081.74 39.7397 1080.94 Q39.2888 1080.13 39.2244 1079.04 Q38.999 1079.26 38.9668 1079.33 Q38.5803 1079.81 38.4515 1080.71 Q38.3871 1080.84 38.3871 1081.29 Q38.3871 1083.51 40.0296 1085.77 Q41.6398 1087.99 44.6994 1090.73 Q48.2743 1094.17 49.5947 1096.4 Q50.8829 1086.64 56.519 1086.64 Q57.4529 1086.64 58.5801 1086.9 Q60.7057 1087.41 62.2516 1087.41 Q65.3434 1087.41 65.3434 1085.32 Q65.3434 1083.29 63.2822 1082 Q61.221 1080.68 57.1953 1079.59 Q56.4545 1079.42 56.2291 1079.26 Q56.0037 1079.1 56.0037 1078.65 Q56.0037 1077.85 56.6478 1077.85 Q60.4159 1078.59 63.3144 1080.23 Q66.8248 1082.32 66.8248 1085.45 Q66.8248 1088.06 65.0213 1089.79 Q63.1856 1091.5 60.287 1091.5 Q59.5785 1091.5 57.9682 1091.24 Q57.3241 1091.05 56.5834 1091.05 Q55.0697 1091.05 53.9425 1091.89 Q52.7831 1092.73 52.2034 1094.08 Q51.6237 1095.43 51.366 1096.56 Q51.0762 1097.65 50.9795 1098.72 Q64.6026 1101.94 65.44 1102.39 Q66.0197 1102.68 66.4062 1103.32 Q66.8248 1103.97 66.8248 1104.64 Q66.8248 1105.29 66.3739 1105.93 Q65.9553 1106.54 64.9569 1106.54 Q64.4416 1106.54 63.5076 1106.28 L25.5047 1096.72 L24.2165 1096.53 Q23.83 1096.53 23.6368 1096.69 Q23.4113 1096.82 23.2503 1097.59 Q23.0893 1098.33 23.0893 1099.81 Q23.0893 1100.42 23.0571 1100.71 Q23.0249 1100.97 22.8638 1101.2 Q22.6706 1101.42 22.2841 1101.42 Q21.7366 1101.42 21.4468 1101.2 Q21.1247 1100.94 21.0603 1100.74 Q20.9959 1100.55 20.9637 1100.17 Q20.9315 1099.62 20.7704 1097.78 Q20.5772 1095.95 20.4484 1094.37 Q20.3196 1092.79 20.3196 1092.11 Q20.3196 1091.73 20.5128 1091.53 Q20.6738 1091.31 20.8671 1091.28 L21.0281 1091.24 L48.854 1098.1 Q47.7268 1095.27 42.7348 1090.79 Q36.9378 1085.61 36.9378 1081.16 Q36.9378 1079.07 38.226 1077.88 Q39.4821 1076.69 41.0923 1076.69 Z" fill="#000000" fill-rule="nonzero" fill-opacity="1"></path><path clip-path="url(#clip710)" d="M81.9294 1069.6 Q81.6073 1069.6 80.8022 1068.76 Q69.981 1058.14 49.5947 1058.14 Q29.144 1058.14 18.8059 1068.35 Q17.6143 1069.6 17.26 1069.6 Q16.6159 1069.6 16.6159 1068.96 Q16.6159 1068.51 17.9363 1066.93 Q19.2568 1065.32 22.2841 1062.9 Q25.3115 1060.46 29.0151 1058.65 Q38.0006 1054.3 49.5947 1054.3 Q60.7379 1054.3 69.7234 1058.46 Q73.4914 1060.23 76.6476 1062.71 Q79.8038 1065.19 81.1886 1066.83 Q82.5735 1068.47 82.5735 1068.96 Q82.5735 1069.6 81.9294 1069.6 Z" fill="#000000" fill-rule="nonzero" fill-opacity="1"></path><polyline clip-path="url(#clip714)" style="stroke:#009af9; stroke-linecap:round; stroke-linejoin:round; stroke-width:4; stroke-opacity:1; fill:none" points="279.144,832.458 446.701,884.449 544.715,923.245 614.258,957.471 668.199,987.378 712.272,1013.35 749.536,1035.13 781.815,1061.76 810.287,1086.68 835.756,1109.5 858.796,1120.59 879.829,1144.45 899.178,1157.39 917.093,1179.21 933.771,1190.46 949.372,1202.39 964.027,1231.08 977.844,1258.72 990.914,1245.83 1003.31,1275.97 1015.11,1275.97 1026.35,1294.26 1037.1,1322.96 1047.39,1394.05 1057.25,1358.51 1066.74,1394.05 1075.86,1394.05 1093.13,1394.05 1116.93,1358.51 1158.47,1394.05 "></polyline>
<path clip-path="url(#clip710)" d="M905.936 939.133 L1153.78 939.133 L1153.78 835.453 L905.936 835.453  Z" fill="#ffffff" fill-rule="evenodd" fill-opacity="1"></path>
<polyline clip-path="url(#clip710)" style="stroke:#000000; stroke-linecap:round; stroke-linejoin:round; stroke-width:4; stroke-opacity:1; fill:none" points="905.936,939.133 1153.78,939.133 1153.78,835.453 905.936,835.453 905.936,939.133 "></polyline>
<polyline clip-path="url(#clip710)" style="stroke:#009af9; stroke-linecap:round; stroke-linejoin:round; stroke-width:4; stroke-opacity:1; fill:none" points="916.292,887.293 978.431,887.293 "></polyline>
<path clip-path="url(#clip710)" d="M1015.7 884.227 Q1015.65 884.461 1015.56 884.882 Q1015.47 885.281 1015.04 886.545 Q1014.62 887.81 1014.06 889.099 Q1013.52 890.363 1012.47 892.143 Q1011.44 893.9 1010.17 895.493 Q1009.82 895.914 1009.75 896.172 Q1009.7 896.406 1009.7 897.179 Q1009.7 902.051 1011.18 902.051 Q1011.25 902.051 1011.37 902.051 Q1011.51 902.028 1011.86 901.911 Q1012.23 901.77 1012.56 901.559 Q1012.89 901.325 1013.26 900.857 Q1013.64 900.365 1013.87 899.709 Q1014.08 899.24 1014.51 899.24 Q1015.07 899.24 1015.07 899.709 Q1015.07 900.552 1013.9 901.84 Q1012.73 903.129 1011.04 903.129 Q1009.42 903.129 1008.28 902.075 Q1007.15 900.997 1006.68 899.076 Q1001.62 903.129 996.564 903.129 Q993.004 903.129 990.896 900.81 Q988.788 898.467 988.788 895.001 Q988.788 891.675 990.615 888.513 Q992.465 885.351 995.463 883.383 Q998.485 881.393 1001.69 881.393 Q1002.82 881.393 1003.9 881.697 Q1004.97 881.978 1006.05 882.704 Q1007.13 883.43 1007.92 884.531 Q1008.72 885.632 1009.21 887.365 Q1009.7 889.099 1009.7 891.277 L1009.7 894.251 Q1012.8 890.34 1014.41 884.742 Q1014.65 883.899 1014.79 883.805 Q1014.88 883.735 1015.11 883.735 Q1015.35 883.735 1015.49 883.875 Q1015.65 883.992 1015.68 884.11 L1015.7 884.227 M1006.5 897.835 Q1006.4 897.015 1006.4 892.471 Q1006.4 891.605 1006.4 891.136 Q1006.4 890.644 1006.35 889.707 Q1006.31 888.771 1006.21 888.185 Q1006.14 887.599 1005.98 886.756 Q1005.82 885.913 1005.58 885.374 Q1005.35 884.836 1004.97 884.227 Q1004.62 883.618 1004.15 883.266 Q1003.71 882.915 1003.05 882.681 Q1002.42 882.447 1001.65 882.447 Q1000.69 882.447 999.679 882.798 Q998.696 883.126 997.431 884.18 Q996.166 885.21 995.112 886.85 Q994.011 888.583 993.168 891.769 Q992.348 894.931 992.348 896.828 Q992.348 899.217 993.449 900.646 Q994.55 902.051 996.658 902.051 Q1001.69 902.051 1006.5 897.835 Z" fill="#000000" fill-rule="nonzero" fill-opacity="1"></path><path clip-path="url(#clip710)" d="M1032.48 895.305 Q1032.52 894.72 1033.44 894.72 L1062.83 894.72 Q1064.21 894.72 1064.24 895.259 Q1064.24 895.844 1062.93 895.821 L1033.76 895.821 Q1032.48 895.844 1032.48 895.305 M1032.48 885.936 Q1032.48 885.351 1033.48 885.374 L1062.78 885.374 Q1064.21 885.374 1064.24 885.936 Q1064.24 886.475 1063.02 886.475 L1033.44 886.475 Q1032.48 886.475 1032.48 885.936 Z" fill="#000000" fill-rule="nonzero" fill-opacity="1"></path><path clip-path="url(#clip710)" d="M1082.73 887.248 Q1082.73 880.198 1084.51 876.357 Q1086.99 870.642 1092.85 870.642 Q1094.09 870.642 1095.38 870.993 Q1096.69 871.321 1098.33 872.609 Q1099.99 873.897 1101 876.005 Q1102.92 880.081 1102.92 887.248 Q1102.92 894.251 1101.14 898.069 Q1098.54 903.644 1092.8 903.644 Q1090.64 903.644 1088.44 902.543 Q1086.26 901.442 1084.88 898.795 Q1082.73 894.837 1082.73 887.248 M1086.71 886.663 Q1086.71 893.9 1087.22 896.781 Q1087.81 899.896 1089.4 901.255 Q1091.02 902.59 1092.8 902.59 Q1094.72 902.59 1096.31 901.161 Q1097.93 899.709 1098.42 896.594 Q1098.96 893.525 1098.94 886.663 Q1098.94 879.987 1098.47 877.317 Q1097.84 874.202 1096.15 872.96 Q1094.49 871.696 1092.8 871.696 Q1092.17 871.696 1091.49 871.883 Q1090.83 872.07 1089.87 872.609 Q1088.91 873.148 1088.16 874.483 Q1087.44 875.818 1087.08 877.832 Q1086.71 880.432 1086.71 886.663 Z" fill="#000000" fill-rule="nonzero" fill-opacity="1"></path><path clip-path="url(#clip710)" d="M1107.2 901.817 Q1106.48 901.044 1106.48 900.037 Q1106.48 899.03 1107.2 898.304 Q1107.93 897.554 1109.03 897.554 Q1110.08 897.554 1110.79 898.257 Q1111.51 898.936 1111.51 900.06 Q1111.51 901.161 1110.74 901.887 Q1109.99 902.59 1109.03 902.59 Q1107.93 902.59 1107.2 901.817 Z" fill="#000000" fill-rule="nonzero" fill-opacity="1"></path><path clip-path="url(#clip710)" d="M1119.67 894.86 Q1119.67 893.432 1120.45 892.893 Q1121.22 892.331 1122.04 892.331 Q1123.14 892.331 1123.77 893.033 Q1124.43 893.713 1124.43 894.673 Q1124.43 895.633 1123.77 896.336 Q1123.14 897.015 1122.04 897.015 Q1121.5 897.015 1121.22 896.922 Q1121.85 899.123 1123.77 900.716 Q1125.72 902.309 1128.27 902.309 Q1131.48 902.309 1133.4 899.194 Q1134.55 897.179 1134.55 892.612 Q1134.55 888.583 1133.68 886.569 Q1132.35 883.501 1129.61 883.501 Q1125.72 883.501 1123.42 886.85 Q1123.14 887.272 1122.81 887.295 Q1122.34 887.295 1122.23 887.037 Q1122.13 886.756 1122.13 886.03 L1122.13 871.836 Q1122.13 870.688 1122.6 870.688 Q1122.79 870.688 1123.19 870.829 Q1126.21 872.164 1129.56 872.188 Q1133 872.188 1136.09 870.782 Q1136.33 870.642 1136.47 870.642 Q1136.94 870.642 1136.96 871.18 Q1136.96 871.368 1136.56 871.93 Q1136.19 872.469 1135.37 873.195 Q1134.55 873.897 1133.49 874.577 Q1132.44 875.256 1130.89 875.724 Q1129.37 876.169 1127.69 876.169 Q1125.67 876.169 1123.61 875.537 L1123.61 884.882 Q1126.09 882.447 1129.7 882.447 Q1133.54 882.447 1136.19 885.538 Q1138.83 888.63 1138.83 892.94 Q1138.83 897.46 1135.7 900.552 Q1132.58 903.644 1128.36 903.644 Q1124.52 903.644 1122.09 900.903 Q1119.67 898.163 1119.67 894.86 Z" fill="#000000" fill-rule="nonzero" fill-opacity="1"></path><path clip-path="url(#clip710)" d="M1420.67 1410.9 L2352.76 1410.9 L2352.76 815.61 L1420.67 815.61  Z" fill="#ffffff" fill-rule="evenodd" fill-opacity="1"></path>
<defs>
  <clipPath id="clip715">
    <rect x="1420" y="815" width="933" height="596"></rect>
  </clipPath>
</defs>
<polyline clip-path="url(#clip715)" style="stroke:#000000; stroke-linecap:round; stroke-linejoin:round; stroke-width:2; stroke-opacity:0.1; fill:none" points="1447.05,1410.9 1447.05,815.61 "></polyline>
<polyline clip-path="url(#clip715)" style="stroke:#000000; stroke-linecap:round; stroke-linejoin:round; stroke-width:2; stroke-opacity:0.1; fill:none" points="1974.94,1410.9 1974.94,815.61 "></polyline>
<polyline clip-path="url(#clip710)" style="stroke:#000000; stroke-linecap:round; stroke-linejoin:round; stroke-width:4; stroke-opacity:1; fill:none" points="1420.67,1410.9 2352.76,1410.9 "></polyline>
<polyline clip-path="url(#clip710)" style="stroke:#000000; stroke-linecap:round; stroke-linejoin:round; stroke-width:4; stroke-opacity:1; fill:none" points="1447.05,1410.9 1447.05,1392 "></polyline>
<polyline clip-path="url(#clip710)" style="stroke:#000000; stroke-linecap:round; stroke-linejoin:round; stroke-width:4; stroke-opacity:1; fill:none" points="1974.94,1410.9 1974.94,1392 "></polyline>
<path clip-path="url(#clip710)" d="M1412.03 1485.02 L1419.67 1485.02 L1419.67 1458.66 L1411.36 1460.32 L1411.36 1456.06 L1419.62 1454.4 L1424.3 1454.4 L1424.3 1485.02 L1431.94 1485.02 L1431.94 1488.96 L1412.03 1488.96 L1412.03 1485.02 Z" fill="#000000" fill-rule="nonzero" fill-opacity="1"></path><path clip-path="url(#clip710)" d="M1451.38 1457.48 Q1447.77 1457.48 1445.94 1461.04 Q1444.14 1464.58 1444.14 1471.71 Q1444.14 1478.82 1445.94 1482.38 Q1447.77 1485.92 1451.38 1485.92 Q1455.02 1485.92 1456.82 1482.38 Q1458.65 1478.82 1458.65 1471.71 Q1458.65 1464.58 1456.82 1461.04 Q1455.02 1457.48 1451.38 1457.48 M1451.38 1453.77 Q1457.19 1453.77 1460.25 1458.38 Q1463.33 1462.96 1463.33 1471.71 Q1463.33 1480.44 1460.25 1485.04 Q1457.19 1489.63 1451.38 1489.63 Q1445.57 1489.63 1442.49 1485.04 Q1439.44 1480.44 1439.44 1471.71 Q1439.44 1462.96 1442.49 1458.38 Q1445.57 1453.77 1451.38 1453.77 Z" fill="#000000" fill-rule="nonzero" fill-opacity="1"></path><path clip-path="url(#clip710)" d="M1473.03 1435.97 Q1470.1 1435.97 1468.61 1438.86 Q1467.15 1441.74 1467.15 1447.53 Q1467.15 1453.31 1468.61 1456.2 Q1470.1 1459.08 1473.03 1459.08 Q1475.99 1459.08 1477.45 1456.2 Q1478.94 1453.31 1478.94 1447.53 Q1478.94 1441.74 1477.45 1438.86 Q1475.99 1435.97 1473.03 1435.97 M1473.03 1432.96 Q1477.75 1432.96 1480.24 1436.7 Q1482.74 1440.43 1482.74 1447.53 Q1482.74 1454.62 1480.24 1458.37 Q1477.75 1462.09 1473.03 1462.09 Q1468.31 1462.09 1465.81 1458.37 Q1463.33 1454.62 1463.33 1447.53 Q1463.33 1440.43 1465.81 1436.7 Q1468.31 1432.96 1473.03 1432.96 Z" fill="#000000" fill-rule="nonzero" fill-opacity="1"></path><path clip-path="url(#clip710)" d="M1940.38 1485.02 L1948.02 1485.02 L1948.02 1458.66 L1939.71 1460.32 L1939.71 1456.06 L1947.97 1454.4 L1952.65 1454.4 L1952.65 1485.02 L1960.29 1485.02 L1960.29 1488.96 L1940.38 1488.96 L1940.38 1485.02 Z" fill="#000000" fill-rule="nonzero" fill-opacity="1"></path><path clip-path="url(#clip710)" d="M1979.73 1457.48 Q1976.12 1457.48 1974.29 1461.04 Q1972.49 1464.58 1972.49 1471.71 Q1972.49 1478.82 1974.29 1482.38 Q1976.12 1485.92 1979.73 1485.92 Q1983.36 1485.92 1985.17 1482.38 Q1987 1478.82 1987 1471.71 Q1987 1464.58 1985.17 1461.04 Q1983.36 1457.48 1979.73 1457.48 M1979.73 1453.77 Q1985.54 1453.77 1988.6 1458.38 Q1991.68 1462.96 1991.68 1471.71 Q1991.68 1480.44 1988.6 1485.04 Q1985.54 1489.63 1979.73 1489.63 Q1973.92 1489.63 1970.84 1485.04 Q1967.79 1480.44 1967.79 1471.71 Q1967.79 1462.96 1970.84 1458.38 Q1973.92 1453.77 1979.73 1453.77 Z" fill="#000000" fill-rule="nonzero" fill-opacity="1"></path><path clip-path="url(#clip710)" d="M2004.37 1446.41 Q2007.1 1446.99 2008.62 1448.83 Q2010.16 1450.68 2010.16 1453.38 Q2010.16 1457.54 2007.3 1459.82 Q2004.45 1462.09 1999.18 1462.09 Q1997.41 1462.09 1995.53 1461.73 Q1993.67 1461.4 1991.68 1460.7 L1991.68 1457.03 Q1993.25 1457.95 1995.14 1458.42 Q1997.02 1458.89 1999.07 1458.89 Q2002.64 1458.89 2004.5 1457.48 Q2006.38 1456.07 2006.38 1453.38 Q2006.38 1450.9 2004.63 1449.51 Q2002.9 1448.1 1999.8 1448.1 L1996.53 1448.1 L1996.53 1444.98 L1999.95 1444.98 Q2002.75 1444.98 2004.24 1443.87 Q2005.72 1442.74 2005.72 1440.63 Q2005.72 1438.47 2004.18 1437.32 Q2002.66 1436.16 1999.8 1436.16 Q1998.24 1436.16 1996.45 1436.49 Q1994.67 1436.83 1992.52 1437.55 L1992.52 1434.16 Q1994.68 1433.56 1996.57 1433.26 Q1998.46 1432.96 2000.14 1432.96 Q2004.46 1432.96 2006.98 1434.93 Q2009.5 1436.89 2009.5 1440.24 Q2009.5 1442.57 2008.17 1444.19 Q2006.83 1445.79 2004.37 1446.41 Z" fill="#000000" fill-rule="nonzero" fill-opacity="1"></path><path clip-path="url(#clip710)" d="M1899.55 1542.98 Q1899.55 1544.81 1898.42 1545.91 Q1897.33 1547 1895.94 1547 Q1894.72 1547 1894.07 1546.3 Q1893.43 1545.59 1893.43 1544.69 Q1893.43 1544.3 1893.59 1543.82 Q1893.75 1543.3 1894.11 1542.69 Q1894.49 1542.08 1895.3 1541.63 Q1896.1 1541.18 1897.2 1541.11 Q1896.97 1540.89 1896.91 1540.85 Q1896.43 1540.47 1895.52 1540.34 Q1895.39 1540.27 1894.94 1540.27 Q1892.72 1540.27 1890.47 1541.92 Q1888.25 1543.53 1885.51 1546.59 Q1882.06 1550.16 1879.84 1551.48 Q1889.6 1552.77 1889.6 1558.41 Q1889.6 1559.34 1889.34 1560.47 Q1888.82 1562.59 1888.82 1564.14 Q1888.82 1567.23 1890.92 1567.23 Q1892.95 1567.23 1894.24 1565.17 Q1895.56 1563.11 1896.65 1559.08 Q1896.81 1558.34 1896.97 1558.12 Q1897.13 1557.89 1897.58 1557.89 Q1898.39 1557.89 1898.39 1558.53 Q1897.65 1562.3 1896.01 1565.2 Q1893.91 1568.71 1890.79 1568.71 Q1888.18 1568.71 1886.44 1566.91 Q1884.73 1565.07 1884.73 1562.17 Q1884.73 1561.46 1884.99 1559.85 Q1885.19 1559.21 1885.19 1558.47 Q1885.19 1556.96 1884.35 1555.83 Q1883.51 1554.67 1882.16 1554.09 Q1880.81 1553.51 1879.68 1553.25 Q1878.58 1552.96 1877.52 1552.87 Q1874.3 1566.49 1873.85 1567.33 Q1873.56 1567.91 1872.92 1568.29 Q1872.27 1568.71 1871.59 1568.71 Q1870.95 1568.71 1870.31 1568.26 Q1869.69 1567.84 1869.69 1566.84 Q1869.69 1566.33 1869.95 1565.39 L1879.52 1527.39 L1879.71 1526.1 Q1879.71 1525.72 1879.55 1525.52 Q1879.42 1525.3 1878.65 1525.14 Q1877.91 1524.98 1876.43 1524.98 Q1875.81 1524.98 1875.52 1524.94 Q1875.27 1524.91 1875.04 1524.75 Q1874.82 1524.56 1874.82 1524.17 Q1874.82 1523.62 1875.04 1523.33 Q1875.3 1523.01 1875.49 1522.95 Q1875.68 1522.88 1876.07 1522.85 Q1876.62 1522.82 1878.45 1522.66 Q1880.29 1522.46 1881.87 1522.33 Q1883.45 1522.21 1884.12 1522.21 Q1884.51 1522.21 1884.7 1522.4 Q1884.93 1522.56 1884.96 1522.75 L1884.99 1522.91 L1878.13 1550.74 Q1880.97 1549.61 1885.44 1544.62 Q1890.63 1538.82 1895.07 1538.82 Q1897.17 1538.82 1898.36 1540.11 Q1899.55 1541.37 1899.55 1542.98 Z" fill="#000000" fill-rule="nonzero" fill-opacity="1"></path><polyline clip-path="url(#clip715)" style="stroke:#000000; stroke-linecap:round; stroke-linejoin:round; stroke-width:2; stroke-opacity:0.1; fill:none" points="1420.67,1169.3 2352.76,1169.3 "></polyline>
<polyline clip-path="url(#clip715)" style="stroke:#000000; stroke-linecap:round; stroke-linejoin:round; stroke-width:2; stroke-opacity:0.1; fill:none" points="1420.67,832.167 2352.76,832.167 "></polyline>
<polyline clip-path="url(#clip710)" style="stroke:#000000; stroke-linecap:round; stroke-linejoin:round; stroke-width:4; stroke-opacity:1; fill:none" points="1420.67,1410.9 1420.67,815.61 "></polyline>
<polyline clip-path="url(#clip710)" style="stroke:#000000; stroke-linecap:round; stroke-linejoin:round; stroke-width:4; stroke-opacity:1; fill:none" points="1420.67,1169.3 1439.57,1169.3 "></polyline>
<polyline clip-path="url(#clip710)" style="stroke:#000000; stroke-linecap:round; stroke-linejoin:round; stroke-width:4; stroke-opacity:1; fill:none" points="1420.67,832.167 1439.57,832.167 "></polyline>
<path clip-path="url(#clip710)" d="M1283.76 1189.09 L1291.4 1189.09 L1291.4 1162.72 L1283.09 1164.39 L1283.09 1160.13 L1291.35 1158.46 L1296.03 1158.46 L1296.03 1189.09 L1303.67 1189.09 L1303.67 1193.02 L1283.76 1193.02 L1283.76 1189.09 Z" fill="#000000" fill-rule="nonzero" fill-opacity="1"></path><path clip-path="url(#clip710)" d="M1323.11 1161.54 Q1319.5 1161.54 1317.67 1165.11 Q1315.86 1168.65 1315.86 1175.78 Q1315.86 1182.88 1317.67 1186.45 Q1319.5 1189.99 1323.11 1189.99 Q1326.74 1189.99 1328.55 1186.45 Q1330.38 1182.88 1330.38 1175.78 Q1330.38 1168.65 1328.55 1165.11 Q1326.74 1161.54 1323.11 1161.54 M1323.11 1157.84 Q1328.92 1157.84 1331.98 1162.44 Q1335.05 1167.03 1335.05 1175.78 Q1335.05 1184.5 1331.98 1189.11 Q1328.92 1193.69 1323.11 1193.69 Q1317.3 1193.69 1314.22 1189.11 Q1311.17 1184.5 1311.17 1175.78 Q1311.17 1167.03 1314.22 1162.44 Q1317.3 1157.84 1323.11 1157.84 Z" fill="#000000" fill-rule="nonzero" fill-opacity="1"></path><path clip-path="url(#clip710)" d="M1335.05 1151.94 L1359.17 1151.94 L1359.17 1155.14 L1335.05 1155.14 L1335.05 1151.94 Z" fill="#000000" fill-rule="nonzero" fill-opacity="1"></path><path clip-path="url(#clip710)" d="M1378.88 1150.47 Q1381.6 1151.06 1383.13 1152.9 Q1384.67 1154.74 1384.67 1157.45 Q1384.67 1161.61 1381.81 1163.88 Q1378.95 1166.16 1373.69 1166.16 Q1371.92 1166.16 1370.04 1165.8 Q1368.17 1165.46 1366.18 1164.77 L1366.18 1161.1 Q1367.76 1162.02 1369.64 1162.49 Q1371.52 1162.96 1373.57 1162.96 Q1377.15 1162.96 1379.01 1161.55 Q1380.89 1160.14 1380.89 1157.45 Q1380.89 1154.97 1379.14 1153.58 Q1377.41 1152.17 1374.31 1152.17 L1371.03 1152.17 L1371.03 1149.04 L1374.46 1149.04 Q1377.26 1149.04 1378.74 1147.93 Q1380.23 1146.81 1380.23 1144.7 Q1380.23 1142.54 1378.69 1141.39 Q1377.16 1140.22 1374.31 1140.22 Q1372.75 1140.22 1370.96 1140.56 Q1369.17 1140.9 1367.03 1141.61 L1367.03 1138.23 Q1369.19 1137.63 1371.07 1137.33 Q1372.97 1137.02 1374.64 1137.02 Q1378.97 1137.02 1381.49 1139 Q1384.01 1140.96 1384.01 1144.3 Q1384.01 1146.64 1382.68 1148.25 Q1381.34 1149.85 1378.88 1150.47 Z" fill="#000000" fill-rule="nonzero" fill-opacity="1"></path><path clip-path="url(#clip710)" d="M1313.96 851.959 L1321.6 851.959 L1321.6 825.594 L1313.29 827.261 L1313.29 823.001 L1321.56 821.335 L1326.23 821.335 L1326.23 851.959 L1333.87 851.959 L1333.87 855.895 L1313.96 855.895 L1313.96 851.959 Z" fill="#000000" fill-rule="nonzero" fill-opacity="1"></path><path clip-path="url(#clip710)" d="M1353.32 824.413 Q1349.7 824.413 1347.88 827.978 Q1346.07 831.52 1346.07 838.649 Q1346.07 845.756 1347.88 849.321 Q1349.7 852.862 1353.32 852.862 Q1356.95 852.862 1358.75 849.321 Q1360.58 845.756 1360.58 838.649 Q1360.58 831.52 1358.75 827.978 Q1356.95 824.413 1353.32 824.413 M1353.32 820.71 Q1359.13 820.71 1362.18 825.316 Q1365.26 829.899 1365.26 838.649 Q1365.26 847.376 1362.18 851.983 Q1359.13 856.566 1353.32 856.566 Q1347.5 856.566 1344.43 851.983 Q1341.37 847.376 1341.37 838.649 Q1341.37 829.899 1344.43 825.316 Q1347.5 820.71 1353.32 820.71 Z" fill="#000000" fill-rule="nonzero" fill-opacity="1"></path><path clip-path="url(#clip710)" d="M1374.96 802.906 Q1372.03 802.906 1370.54 805.802 Q1369.08 808.68 1369.08 814.472 Q1369.08 820.246 1370.54 823.143 Q1372.03 826.02 1374.96 826.02 Q1377.92 826.02 1379.38 823.143 Q1380.87 820.246 1380.87 814.472 Q1380.87 808.68 1379.38 805.802 Q1377.92 802.906 1374.96 802.906 M1374.96 799.896 Q1379.69 799.896 1382.17 803.639 Q1384.67 807.363 1384.67 814.472 Q1384.67 821.563 1382.17 825.306 Q1379.69 829.03 1374.96 829.03 Q1370.24 829.03 1367.74 825.306 Q1365.26 821.563 1365.26 814.472 Q1365.26 807.363 1367.74 803.639 Q1370.24 799.896 1374.96 799.896 Z" fill="#000000" fill-rule="nonzero" fill-opacity="1"></path><polyline clip-path="url(#clip715)" style="stroke:#009af9; stroke-linecap:round; stroke-linejoin:round; stroke-width:4; stroke-opacity:1; fill:none" points="1447.05,832.458 1500.02,1085.31 1531,1229.71 1552.99,1315.5 2326.38,1394.05 "></polyline>
<path clip-path="url(#clip710)" d="M2078.72 939.133 L2321.69 939.133 L2321.69 835.453 L2078.72 835.453  Z" fill="#ffffff" fill-rule="evenodd" fill-opacity="1"></path>
<polyline clip-path="url(#clip710)" style="stroke:#000000; stroke-linecap:round; stroke-linejoin:round; stroke-width:4; stroke-opacity:1; fill:none" points="2078.72,939.133 2321.69,939.133 2321.69,835.453 2078.72,835.453 2078.72,939.133 "></polyline>
<polyline clip-path="url(#clip710)" style="stroke:#009af9; stroke-linecap:round; stroke-linejoin:round; stroke-width:4; stroke-opacity:1; fill:none" points="2089.07,887.293 2151.21,887.293 "></polyline>
<path clip-path="url(#clip710)" d="M2188.48 884.227 Q2188.43 884.461 2188.34 884.882 Q2188.25 885.281 2187.82 886.545 Q2187.4 887.81 2186.84 889.099 Q2186.3 890.363 2185.25 892.143 Q2184.22 893.9 2182.95 895.493 Q2182.6 895.914 2182.53 896.172 Q2182.48 896.406 2182.48 897.179 Q2182.48 902.051 2183.96 902.051 Q2184.03 902.051 2184.15 902.051 Q2184.29 902.028 2184.64 901.911 Q2185.01 901.77 2185.34 901.559 Q2185.67 901.325 2186.04 900.857 Q2186.42 900.365 2186.65 899.709 Q2186.86 899.24 2187.29 899.24 Q2187.85 899.24 2187.85 899.709 Q2187.85 900.552 2186.68 901.84 Q2185.51 903.129 2183.82 903.129 Q2182.2 903.129 2181.06 902.075 Q2179.93 900.997 2179.46 899.076 Q2174.4 903.129 2169.34 903.129 Q2165.78 903.129 2163.68 900.81 Q2161.57 898.467 2161.57 895.001 Q2161.57 891.675 2163.4 888.513 Q2165.25 885.351 2168.24 883.383 Q2171.26 881.393 2174.47 881.393 Q2175.6 881.393 2176.68 881.697 Q2177.75 881.978 2178.83 882.704 Q2179.91 883.43 2180.7 884.531 Q2181.5 885.632 2181.99 887.365 Q2182.48 889.099 2182.48 891.277 L2182.48 894.251 Q2185.58 890.34 2187.19 884.742 Q2187.43 883.899 2187.57 883.805 Q2187.66 883.735 2187.89 883.735 Q2188.13 883.735 2188.27 883.875 Q2188.43 883.992 2188.46 884.11 L2188.48 884.227 M2179.28 897.835 Q2179.18 897.015 2179.18 892.471 Q2179.18 891.605 2179.18 891.136 Q2179.18 890.644 2179.13 889.707 Q2179.09 888.771 2178.99 888.185 Q2178.92 887.599 2178.76 886.756 Q2178.6 885.913 2178.36 885.374 Q2178.13 884.836 2177.75 884.227 Q2177.4 883.618 2176.93 883.266 Q2176.49 882.915 2175.83 882.681 Q2175.2 882.447 2174.43 882.447 Q2173.47 882.447 2172.46 882.798 Q2171.48 883.126 2170.21 884.18 Q2168.95 885.21 2167.89 886.85 Q2166.79 888.583 2165.95 891.769 Q2165.13 894.931 2165.13 896.828 Q2165.13 899.217 2166.23 900.646 Q2167.33 902.051 2169.44 902.051 Q2174.47 902.051 2179.28 897.835 Z" fill="#000000" fill-rule="nonzero" fill-opacity="1"></path><path clip-path="url(#clip710)" d="M2205.26 895.305 Q2205.3 894.72 2206.22 894.72 L2235.61 894.72 Q2236.99 894.72 2237.02 895.259 Q2237.02 895.844 2235.71 895.821 L2206.54 895.821 Q2205.26 895.844 2205.26 895.305 M2205.26 885.936 Q2205.26 885.351 2206.26 885.374 L2235.56 885.374 Q2236.99 885.374 2237.02 885.936 Q2237.02 886.475 2235.8 886.475 L2206.22 886.475 Q2205.26 886.475 2205.26 885.936 Z" fill="#000000" fill-rule="nonzero" fill-opacity="1"></path><path clip-path="url(#clip710)" d="M2255.51 875.209 L2255.51 873.71 Q2261.27 873.71 2264.24 870.642 Q2265.06 870.642 2265.2 870.829 Q2265.35 871.016 2265.35 871.883 L2265.35 898.795 Q2265.35 900.224 2266.05 900.669 Q2266.75 901.114 2269.82 901.114 L2271.34 901.114 L2271.34 902.59 Q2269.65 902.449 2263.57 902.449 Q2257.48 902.449 2255.81 902.59 L2255.81 901.114 L2257.33 901.114 Q2260.36 901.114 2261.08 900.693 Q2261.81 900.248 2261.81 898.795 L2261.81 873.944 Q2259.3 875.209 2255.51 875.209 Z" fill="#000000" fill-rule="nonzero" fill-opacity="1"></path><path clip-path="url(#clip710)" d="M2275.11 901.817 Q2274.38 901.044 2274.38 900.037 Q2274.38 899.03 2275.11 898.304 Q2275.83 897.554 2276.94 897.554 Q2277.99 897.554 2278.69 898.257 Q2279.42 898.936 2279.42 900.06 Q2279.42 901.161 2278.65 901.887 Q2277.9 902.59 2276.94 902.59 Q2275.83 902.59 2275.11 901.817 Z" fill="#000000" fill-rule="nonzero" fill-opacity="1"></path><path clip-path="url(#clip710)" d="M2287.58 894.86 Q2287.58 893.432 2288.35 892.893 Q2289.13 892.331 2289.95 892.331 Q2291.05 892.331 2291.68 893.033 Q2292.33 893.713 2292.33 894.673 Q2292.33 895.633 2291.68 896.336 Q2291.05 897.015 2289.95 897.015 Q2289.41 897.015 2289.13 896.922 Q2289.76 899.123 2291.68 900.716 Q2293.62 902.309 2296.18 902.309 Q2299.38 902.309 2301.31 899.194 Q2302.45 897.179 2302.45 892.612 Q2302.45 888.583 2301.59 886.569 Q2300.25 883.501 2297.51 883.501 Q2293.62 883.501 2291.33 886.85 Q2291.05 887.272 2290.72 887.295 Q2290.25 887.295 2290.13 887.037 Q2290.04 886.756 2290.04 886.03 L2290.04 871.836 Q2290.04 870.688 2290.51 870.688 Q2290.7 870.688 2291.09 870.829 Q2294.11 872.164 2297.46 872.188 Q2300.91 872.188 2304 870.782 Q2304.23 870.642 2304.37 870.642 Q2304.84 870.642 2304.87 871.18 Q2304.87 871.368 2304.47 871.93 Q2304.09 872.469 2303.27 873.195 Q2302.45 873.897 2301.4 874.577 Q2300.35 875.256 2298.8 875.724 Q2297.28 876.169 2295.59 876.169 Q2293.58 876.169 2291.51 875.537 L2291.51 884.882 Q2294 882.447 2297.6 882.447 Q2301.45 882.447 2304.09 885.538 Q2306.74 888.63 2306.74 892.94 Q2306.74 897.46 2303.6 900.552 Q2300.49 903.644 2296.27 903.644 Q2292.43 903.644 2289.99 900.903 Q2287.58 898.163 2287.58 894.86 Z" fill="#000000" fill-rule="nonzero" fill-opacity="1"></path></svg>